<svg xmlns="http://www.w3.org/2000/svg" {% if class is defined %}class="{{ class }}"{% endif %} width="619.466" height="100.859" viewBox="0 0 619.466 100.859">
  <g transform="translate(-809.196 -431.583)">
    <path class="outline" d="M735.464-649.162c1.746-9.457,7.279-21.02,20.58-23.158s25.974,6.953,25.974,6.953,6.732-10.231,15.363-10.459,20.2,10.459,20.2,10.459,5.619-13.951,23.74-12.57,18.619,12.57,18.619,12.57a51.469,51.469,0,0,1,20.068,0c10.954,2.2,15.152.736,27.285,0s18.484-3.011,23.733-6.953,17.556-7.212,22.826-1.565,6.538,7.24,6.538,7.24,5.16-8.875,15.37-9.181,12.6,6.946,20.669,6.038,11.221-12.085,22.963-8.149,20.127,15.126,20.127,15.126,5.851-8.227,20.341-6.977a24.474,24.474,0,0,1,19.827,13.071s5.439-9.906,12.476-11.074-.809-15.6,0-24.616,5.9-17.018,16.969-15.354,13.565,10.254,12.954,21.62a195.971,195.971,0,0,0,0,20.773s6.657-11.36,16.392-10.459,10.214-7.854,20.641-8.138,12.816,10.629,19.837,11.644,8.741-9.3,19.767-5.618,4.776,17.1,11.735,18.476,14.274-9.481,22.651-8.329,14,8.329,14,8.329a24.07,24.07,0,0,1,19.543-8.329c12.741.605,13.777-1.278,21.729,4.979s11.667,5.531,11.667,5.531,5.761-10.673,13.434-10.51,18.916-.622,25.369,8.329,9.528,9.829,9.528,9.829,10.219,4.02,4.46,12.755-15.482,13.185-15.482,13.185-2.27,14.546-20.459,13.553-19.459-12.71-29.649-13.553-11.038,7.548-16.525,5.622-9.6-7.861-18.463-3.361-12.814,8.386-22.361,6.692-10.752.439-19.447,0-15.636-1.144-15.636-1.144-4.6,1.734-12.377,1.144a100.742,100.742,0,0,1-17.17-3.331s-11.964-.2-17.988-1.734-6.661,2.174-24.188,5.065-29.676-3.7-36.528,0-11.434,7.887-28.446,7.6-19.058-10.544-25.094-14.3-6.688-.057-11.062,3.361-6.313,10.409-21.178,7.814-10.951-15.054-15.221-11.175-12.6,10.924-18.689,6.692-12.663,7.739-19.432,0-9.6-8.024-11.045-3.331-7.213,8.485-10.074,5.877-5.024-8.615-8.967-5.877-3.726,7.359-12.192,5.877-11.018-5.877-11.018-5.877-7.352,5.779-23.174,3.331-21.877,1.673-32.888,0-13.633-6.692-13.633-6.692-5.781,7.4-20.1,6.692-17.223-6.692-17.223-6.692-25.2,8.419-36.682,1.552S733.718-639.705,735.464-649.162Z" transform="translate(74.061 1139.564)" fill="#ece3cc"/>
    <path class="text" d="M13.072-4.94a8.443,8.443,0,0,1-2.28-.342A12.262,12.262,0,0,1,8.36-6.27,11.689,11.689,0,0,1,6.042-7.9,9.008,9.008,0,0,1,4.18-10.26,15.74,15.74,0,0,1,2.622-7.866a3.045,3.045,0,0,1-2.47.874,3.046,3.046,0,0,1-2.736-1.14,3.987,3.987,0,0,1-.76-2.2A5.66,5.66,0,0,1-2.166-13.3,29.5,29.5,0,0,1,.228-16.416Q0-17.48-.19-18.848a21,21,0,0,1-.19-2.888A15.491,15.491,0,0,1,.494-26.79,14.383,14.383,0,0,1,3.04-31.35a13.22,13.22,0,0,1,4.18-3.306,12.61,12.61,0,0,1,5.852-1.292,9.931,9.931,0,0,1,5.89,1.748A15.5,15.5,0,0,1,23.1-29.83a19.914,19.914,0,0,1,2.47,5.624,21.349,21.349,0,0,1,.8,5.434,16.635,16.635,0,0,1-.3,3.116,20.341,20.341,0,0,1-.608,2.508,6.981,6.981,0,0,0,2.926,3.686,7,7,0,0,0,3.23.95,3.8,3.8,0,0,0,2.584-.8A12.457,12.457,0,0,0,35.872-11.1a18.3,18.3,0,0,1,1.558-1.786,3.14,3.14,0,0,1,2.318-.8,3.385,3.385,0,0,1,2.242.874,2.979,2.979,0,0,1,1.026,2.394,3.516,3.516,0,0,1-.3,1.444A8.3,8.3,0,0,1,41.42-6.726a11.007,11.007,0,0,1-2.356,2.2,13.822,13.822,0,0,1-3.344,1.71,12.5,12.5,0,0,1-4.256.684,10.042,10.042,0,0,1-3.192-.532,16.4,16.4,0,0,1-3.04-1.368,16.729,16.729,0,0,1-2.584-1.824,12.525,12.525,0,0,1-1.824-1.9A11.089,11.089,0,0,1,17.442-5.7,11.889,11.889,0,0,1,13.072-4.94Zm-.76-24.624a3.944,3.944,0,0,0-2.66.912,6.349,6.349,0,0,0-1.672,2.28,12.18,12.18,0,0,0-.874,3,18.793,18.793,0,0,0-.266,3,10.53,10.53,0,0,0,.57,3.42,12.285,12.285,0,0,0,1.482,3,8.008,8.008,0,0,0,2.166,2.166,4.657,4.657,0,0,0,2.622.836,3.73,3.73,0,0,0,2.28-.8,7.908,7.908,0,0,0,1.862-2.014,11.074,11.074,0,0,0,1.254-2.584,7.989,7.989,0,0,0,.456-2.508,17.675,17.675,0,0,0-.342-3.078,13.189,13.189,0,0,0-1.178-3.534,9.248,9.248,0,0,0-2.242-2.888A5.1,5.1,0,0,0,12.312-29.564ZM55.328-18.848a19.652,19.652,0,0,0-.19-2.622,8.068,8.068,0,0,0-.76-2.546,5.123,5.123,0,0,0-1.634-1.9,4.737,4.737,0,0,0-2.812-.76,5.593,5.593,0,0,0-2.508.646,7.7,7.7,0,0,0-2.394,1.938,10.446,10.446,0,0,0-1.824,3.344,14.682,14.682,0,0,0-.722,4.864,11.053,11.053,0,0,0,.76,3.914,11.159,11.159,0,0,0,2.318,3.686,12.041,12.041,0,0,0,3.914,2.736,13.381,13.381,0,0,0,5.548,1.064,18.014,18.014,0,0,0,5.358-.684A14.537,14.537,0,0,0,64.22-6.992,17.99,17.99,0,0,0,67.3-9.652q1.406-1.52,3.154-3.268a2.877,2.877,0,0,1,2.128-.76,3.183,3.183,0,0,1,1.634.38,3.528,3.528,0,0,1,1.026.874,3,3,0,0,1,.532,1.064,3.823,3.823,0,0,1,.152.95A3.649,3.649,0,0,1,75.7-9.12a2.728,2.728,0,0,1-.608.988,20.76,20.76,0,0,1-3.8,3.99A28.475,28.475,0,0,1,66.272-.874,28.335,28.335,0,0,1,60.5,1.33a23.86,23.86,0,0,1-6.08.8A19.115,19.115,0,0,1,48.108.988a19.194,19.194,0,0,1-6-3.42,18.531,18.531,0,0,1-4.522-5.662A16.774,16.774,0,0,1,35.8-16.036a26.654,26.654,0,0,1,.646-5.586,15.83,15.83,0,0,1,2.394-5.586A13.753,13.753,0,0,1,43.662-31.5a16.258,16.258,0,0,1,7.942-1.71,8.409,8.409,0,0,1,4.18,1.064,10.648,10.648,0,0,1,3.306,2.926,13.836,13.836,0,0,1,2.166,4.37,18.249,18.249,0,0,1,.76,5.32,4.737,4.737,0,0,1-.76,2.812,3.05,3.05,0,0,1-2.66,1.064,2.928,2.928,0,0,1-2.622-.988A3.941,3.941,0,0,1,55.328-18.848ZM104.5-12.312a4.955,4.955,0,0,1,1.064-.912,3.091,3.091,0,0,1,1.748-.456,3.588,3.588,0,0,1,2.242.874,2.89,2.89,0,0,1,1.1,2.394,3.568,3.568,0,0,1-.684,2.2,19.2,19.2,0,0,1-3.344,3.42,26.788,26.788,0,0,1-4.522,2.964A26.229,26.229,0,0,1,96.862.228a21.053,21.053,0,0,1-5.586.76,14.644,14.644,0,0,1-5.32-.912,13.424,13.424,0,0,1-4.142-2.508,15.082,15.082,0,0,1-3-3.686,20.214,20.214,0,0,1-1.9-4.37,10.949,10.949,0,0,1-.684,1.178,7.858,7.858,0,0,1-.988,1.178,2.538,2.538,0,0,1-1.178.874,4.255,4.255,0,0,1-1.482.266,3.354,3.354,0,0,1-1.71-.38,3.528,3.528,0,0,1-1.026-.874,3,3,0,0,1-.532-1.064,4.024,4.024,0,0,1-.152-1.026,4.275,4.275,0,0,1,.608-1.9q.608-1.14,1.444-2.47t1.824-2.622q.988-1.292,1.672-2.356a45.514,45.514,0,0,1,1.938-4.75,17.291,17.291,0,0,1,2.736-4.142A13.326,13.326,0,0,1,83.22-31.54a11.279,11.279,0,0,1,5.244-1.14,11.541,11.541,0,0,1,6.84,1.938,15.448,15.448,0,0,1,4.408,4.75,2.983,2.983,0,0,1,.456,1.14,7.016,7.016,0,0,1,.076.988,3.156,3.156,0,0,1-1.064,2.47,3.372,3.372,0,0,1-2.28.95,3.5,3.5,0,0,1-2.47-.874,15.544,15.544,0,0,1-1.748-1.9,20.357,20.357,0,0,0-1.672-1.9,3.133,3.133,0,0,0-2.318-.874,5.256,5.256,0,0,0-2.736.722,6.129,6.129,0,0,0-2.014,1.938,9.663,9.663,0,0,0-1.216,2.7,11.284,11.284,0,0,0-.418,3.078,18.062,18.062,0,0,0,.646,4.94,12.4,12.4,0,0,0,1.862,3.952,8.761,8.761,0,0,0,3,2.622,8.362,8.362,0,0,0,3.99.95,11.848,11.848,0,0,0,4.218-.76,17.621,17.621,0,0,0,3.648-1.862,19.433,19.433,0,0,0,2.888-2.356A16.941,16.941,0,0,0,104.5-12.312Zm-.532,1.9a13.029,13.029,0,0,1,1.216-5.472,15.218,15.218,0,0,1,3.306-4.674,16.618,16.618,0,0,1,4.826-3.23A14.064,14.064,0,0,1,119.092-25a19.111,19.111,0,0,1,1.938.114,10.637,10.637,0,0,1,2.166.456,4.789,4.789,0,0,1,1.862,1.1,3.177,3.177,0,0,1,.95,1.976,10.806,10.806,0,0,1,4.142,4.522,16.125,16.125,0,0,1,1.634,6.042,11.326,11.326,0,0,0,1.14.228,8.071,8.071,0,0,0,1.14.076,8.4,8.4,0,0,0,3.344-.684,21.57,21.57,0,0,0,3.42-1.9,3.149,3.149,0,0,1,1.9-.608,2.757,2.757,0,0,1,2.508,1.178,4,4,0,0,1,.76,2.09,3.581,3.581,0,0,1-1.1,2.622A8.5,8.5,0,0,1,142.2-6a14.9,14.9,0,0,1-3.382.988,19.063,19.063,0,0,1-3.154.3,15.841,15.841,0,0,1-2.166-.152q-1.1-.152-2.166-.38a12.14,12.14,0,0,1-4.256,6.422Q124.032,3.5,118.788,3.5A15.449,15.449,0,0,1,112.214,2.2a14.186,14.186,0,0,1-4.6-3.306,13.7,13.7,0,0,1-2.736-4.484A13.883,13.883,0,0,1,103.968-10.412Zm8.816-3.724a3.958,3.958,0,0,1,1.254-2.7,7.78,7.78,0,0,1,2.774-1.938H116.2a3.423,3.423,0,0,0-2.128.76,7.984,7.984,0,0,0-1.786,1.976,10.532,10.532,0,0,0-1.254,2.7,9.912,9.912,0,0,0-.456,2.926,5.994,5.994,0,0,0,.95,3.5,7.855,7.855,0,0,0,2.28,2.2,9.312,9.312,0,0,0,2.7,1.178,9.741,9.741,0,0,0,2.28.342,12.5,12.5,0,0,0,1.9-.152,6.138,6.138,0,0,0,1.824-.57,4.109,4.109,0,0,0,1.406-1.14,4.392,4.392,0,0,0,.8-1.938,23.81,23.81,0,0,1-3.344-1.14,40.351,40.351,0,0,1-3.952-1.862,21.468,21.468,0,0,1-3.268-2.128Q112.784-13.224,112.784-14.136Zm9.2-4.408a5.284,5.284,0,0,0-1.026.114,6.5,6.5,0,0,0-1.14.342,2.351,2.351,0,0,0-.95.684,1.721,1.721,0,0,0-.38,1.14,2.877,2.877,0,0,0,.722,1.862,7.672,7.672,0,0,0,1.786,1.558,10.274,10.274,0,0,0,2.318,1.1,13.37,13.37,0,0,0,2.318.57,20.73,20.73,0,0,0-.456-2.242,14.081,14.081,0,0,0-.76-2.2,8.125,8.125,0,0,0-1.1-1.824A3.712,3.712,0,0,0,121.98-18.544Zm23.332,10.26a3.051,3.051,0,0,1-2.66,1.292,2.89,2.89,0,0,1-2.394-1.1,3.506,3.506,0,0,1-.874-2.166,3.649,3.649,0,0,1,.228-1.292,6.809,6.809,0,0,1,.608-1.216q1.748-2.508,3.876-5.016A38.527,38.527,0,0,1,148.5-22.23a25.247,25.247,0,0,1,4.6-3.154,9.574,9.574,0,0,1,4.446-1.216,5.4,5.4,0,0,1,3.572,1.14,8.038,8.038,0,0,1,2.166,2.888,14.1,14.1,0,0,1,1.1,3.914,30.863,30.863,0,0,1,.3,4.294,27.272,27.272,0,0,1,1.368-2.812,25.7,25.7,0,0,1,2.128-3.268,15.5,15.5,0,0,1,2.584-2.7,4.448,4.448,0,0,1,2.812-1.1,3.237,3.237,0,0,1,2.508,1.216,11.109,11.109,0,0,1,1.786,2.85,18.386,18.386,0,0,1,1.1,3.268,19.922,19.922,0,0,1,.456,2.47q1.216-2.432,2.774-5.13a42.961,42.961,0,0,1,3.306-4.94,20.552,20.552,0,0,1,3.686-3.724,6.326,6.326,0,0,1,3.838-1.482,2.629,2.629,0,0,1,2.128,1.216,11.7,11.7,0,0,1,1.6,3.192,34.523,34.523,0,0,1,1.178,4.408l.988,4.864q.494,2.432,1.026,4.56a15.456,15.456,0,0,0,1.216,3.42.516.516,0,0,0,.38.152q.76,0,2.2-1.368a20.023,20.023,0,0,0,2.66-3.116,3.051,3.051,0,0,1,2.66-1.292,3.042,3.042,0,0,1,2.432,1.064,3.362,3.362,0,0,1,.912,2.2,6.183,6.183,0,0,1-1.444,3.61,20.374,20.374,0,0,1-3.5,3.61,21.552,21.552,0,0,1-4.37,2.774,9.723,9.723,0,0,1-4.066,1.1A3.742,3.742,0,0,1,196.422-.57a10.522,10.522,0,0,1-1.9-3,23.923,23.923,0,0,1-1.33-4.066q-.532-2.242-.95-4.408t-.76-4.066a22.674,22.674,0,0,0-.722-3.04,2.389,2.389,0,0,0-.988.8,11.841,11.841,0,0,0-1.064,1.558q-.532.912-1.026,1.938T186.808-13q-.836,1.824-2.052,4.332a45.093,45.093,0,0,1-2.66,4.75,24.159,24.159,0,0,1-2.964,3.8,4.286,4.286,0,0,1-2.964,1.558A3.428,3.428,0,0,1,174.5,1.1a2.257,2.257,0,0,1-.912-.912,3.051,3.051,0,0,1-.342-1.292q-.038-.722-.038-1.482,0-1.14.038-2.356T173.28-7.3q0-.684-.038-1.672t-.152-1.938a10.2,10.2,0,0,0-.342-1.71,1.659,1.659,0,0,0-.608-.988,13.407,13.407,0,0,0-2.85,3.344q-1.406,2.2-2.736,4.75T164.046-.532a40.8,40.8,0,0,1-2.09,3.876,3.639,3.639,0,0,1-1.444,1.406,3.71,3.71,0,0,1-1.672.418,3.6,3.6,0,0,1-2.394-.95,3.107,3.107,0,0,1-1.1-2.47A5.735,5.735,0,0,1,155.42.684q.228-.836.76-2.584t1.064-3.914q.532-2.166.95-4.484a24.306,24.306,0,0,0,.418-4.294,11.055,11.055,0,0,0-.418-3.154,3.264,3.264,0,0,0-1.482-2.014,5.737,5.737,0,0,0-3.116,1.178,16.556,16.556,0,0,0-2.926,2.774,45.083,45.083,0,0,0-2.774,3.686Q146.528-10.108,145.312-8.284Zm77.6-15.732a3.463,3.463,0,0,0-2.356,1.482,28.649,28.649,0,0,0-2.7,3.762q-1.406,2.28-2.926,5.054t-3.116,5.282a3.8,3.8,0,0,1-1.026.95A3.089,3.089,0,0,1,209-6.992a2.89,2.89,0,0,1-2.394-1.1,3.678,3.678,0,0,1-.874-2.318,3.6,3.6,0,0,1,.456-1.748q.684-1.064,1.71-2.926t2.394-4.028q1.368-2.166,2.926-4.37a34.806,34.806,0,0,1,3.268-3.99,19.136,19.136,0,0,1,3.5-2.926,6.65,6.65,0,0,1,3.61-1.14,4.142,4.142,0,0,1,2.812.988,7.061,7.061,0,0,1,1.824,2.546,14.144,14.144,0,0,1,.988,3.42,22.4,22.4,0,0,1,.3,3.61,16.835,16.835,0,0,1-.38,3.724,28.768,28.768,0,0,0,1.786-3.572A42.892,42.892,0,0,1,233.32-25.5a18.67,18.67,0,0,1,3.154-4.028,5.638,5.638,0,0,1,3.99-1.71,8.627,8.627,0,0,1,6.08,2.242A18.33,18.33,0,0,1,250.5-23.75a28.641,28.641,0,0,1,2.28,6.08q.76,3.078,1.14,4.75.76-2.888,1.634-6.384a42.483,42.483,0,0,1,2.166-6.5,16.225,16.225,0,0,1,3.268-5.016A6.729,6.729,0,0,1,266-32.832a9.509,9.509,0,0,1,5.7,1.748,20.908,20.908,0,0,1,4.446,4.408,58.628,58.628,0,0,1,3.8,5.7q1.786,3.04,3.61,5.7a21.66,21.66,0,0,0,3.914,4.408A7.3,7.3,0,0,0,292.3-9.12a4.735,4.735,0,0,0,2.356-.76,7.442,7.442,0,0,0,2.356-2.356,3.459,3.459,0,0,1,2.812-1.444,2.979,2.979,0,0,1,2.394,1.026,3.479,3.479,0,0,1,.874,2.318,3.463,3.463,0,0,1-.532,1.9,16.952,16.952,0,0,1-3.724,4.218,8.646,8.646,0,0,1-5.624,1.786,14.93,14.93,0,0,1-7.3-1.71,20.67,20.67,0,0,1-5.472-4.332,37.638,37.638,0,0,1-4.18-5.624q-1.824-3-3.306-5.624a32.954,32.954,0,0,0-2.85-4.332,3.79,3.79,0,0,0-2.888-1.71q-1.064,0-2.014,1.444A21.14,21.14,0,0,0,263.34-20.6a49.434,49.434,0,0,0-1.71,5.168q-.8,2.888-1.558,5.738t-1.444,5.434Q257.944-1.672,257.336,0a8.668,8.668,0,0,1-.95,1.71,2.13,2.13,0,0,1-1.862.8A3.178,3.178,0,0,1,251.94,1.14a8.932,8.932,0,0,1-1.216-2.774Q250.04-3.8,249.242-6.65t-1.786-6q-.988-3.154-2.014-5.814a24.282,24.282,0,0,0-2.128-4.37q-1.1-1.71-2.166-1.71-.684,0-1.71,1.748t-2.356,4.37q-1.33,2.622-2.888,5.7t-3.23,5.7a25.715,25.715,0,0,1-3.42,4.37,4.98,4.98,0,0,1-3.42,1.748,5.063,5.063,0,0,1-2.66-.57,2.354,2.354,0,0,1-.912-2.166,12.014,12.014,0,0,1,.532-3.23q.532-1.862,1.178-4.066t1.178-4.56a21.671,21.671,0,0,0,.532-4.788,13.248,13.248,0,0,0-.228-2.584Q223.516-24.016,222.908-24.016ZM296.476-9.652a22.852,22.852,0,0,1,.836-6.232,17.827,17.827,0,0,1,2.356-5.206,11.759,11.759,0,0,1,3.762-3.572,9.862,9.862,0,0,1,5.13-1.33,16.732,16.732,0,0,1,6.118,1.026,13.932,13.932,0,0,1,4.522,2.812,14.837,14.837,0,0,1,3.116,4.218,24.779,24.779,0,0,1,1.9,5.244q.912.38,2.394.988a7.185,7.185,0,0,0,2.7.608,5.364,5.364,0,0,0,2.128-.456,23.924,23.924,0,0,0,2.812-1.52,3.862,3.862,0,0,1,2.052-.608,3.468,3.468,0,0,1,1.786.532,3.01,3.01,0,0,1,.95,1.026,3.362,3.362,0,0,1,.38,1.1,6.5,6.5,0,0,1,.076.684,3.85,3.85,0,0,1-.76,2.28,7.249,7.249,0,0,1-1.9,1.824,9.271,9.271,0,0,1-2.584,1.178,10.09,10.09,0,0,1-2.812.418,21.857,21.857,0,0,1-3.42-.3q-1.9-.3-3.42-.684a39.324,39.324,0,0,1-1.33,5.282,16.4,16.4,0,0,1-2.508,4.864,13.189,13.189,0,0,1-4.142,3.572,12.26,12.26,0,0,1-6.08,1.406,11.9,11.9,0,0,1-6.46-1.672,13.348,13.348,0,0,1-4.332-4.408,20.762,20.762,0,0,1-2.47-6.156A30.337,30.337,0,0,1,296.476-9.652ZM312.588,3.192a4.865,4.865,0,0,0,1.9-1.52A11.424,11.424,0,0,0,315.932-.76a15.432,15.432,0,0,0,.95-2.888,13.483,13.483,0,0,0,.342-2.964,5.863,5.863,0,0,1-.646-.038,6.545,6.545,0,0,0-.722-.038,11.65,11.65,0,0,0-2.812.38,15.942,15.942,0,0,0-2.964,1.064,20.653,20.653,0,0,0-2.736,1.558,8.714,8.714,0,0,0-2.052,1.862,10.136,10.136,0,0,0,1.824,3.952A3.9,3.9,0,0,0,310.308,3.8,4.807,4.807,0,0,0,312.588,3.192ZM309.32-19.152a4.018,4.018,0,0,0-2.7.874,5.834,5.834,0,0,0-1.6,2.242,11.046,11.046,0,0,0-.76,2.926,24.238,24.238,0,0,0-.19,2.926v.836a24.864,24.864,0,0,1,2.242-1.368,25.763,25.763,0,0,1,2.66-1.254,19.6,19.6,0,0,1,2.85-.912,12.182,12.182,0,0,1,2.812-.342,4.662,4.662,0,0,1,.646.038q.266.038.646.114a9.882,9.882,0,0,0-2.47-4.37A5.641,5.641,0,0,0,309.32-19.152Zm50.312-4.94q0,2.432-.114,5.4t-.114,6.384a10.564,10.564,0,0,0,.152,1.634,7.175,7.175,0,0,0,.57,1.862,4.522,4.522,0,0,0,1.1,1.52,2.644,2.644,0,0,0,1.824.608,3.269,3.269,0,0,0,1.824-.608,11.78,11.78,0,0,0,1.786-1.482q.874-.874,1.71-1.862t1.6-1.748a3.384,3.384,0,0,1,2.584-1.292,3.067,3.067,0,0,1,2.47,1.026,3.385,3.385,0,0,1,.874,2.242,3.374,3.374,0,0,1-.532,1.976A28.041,28.041,0,0,1,373.2-5.624a23.315,23.315,0,0,1-2.774,2.7,13.864,13.864,0,0,1-3.382,2.052,10.021,10.021,0,0,1-3.99.8,11.05,11.05,0,0,1-3.192-.456,10.4,10.4,0,0,1-2.736-1.254,10.347,10.347,0,0,1-2.09-1.786,7.665,7.665,0,0,1-1.33-2.052,16.989,16.989,0,0,1-4.636,3.61,12.874,12.874,0,0,1-6.232,1.482,9.051,9.051,0,0,1-7.3-3.04,11.327,11.327,0,0,1-2.584-7.6q0-.608.038-1.33a10.328,10.328,0,0,1,.19-1.482,20.516,20.516,0,0,1,1.368-3.952,21.878,21.878,0,0,1,2.888-4.75,18.284,18.284,0,0,1,4.37-3.99,10.222,10.222,0,0,1,5.738-1.672,11.894,11.894,0,0,1,5.092,1.216q0-6.232-.19-11.172t-.418-9.462q-.228-4.522-.456-9.12t-.3-10.146q0-.532.038-1.14a2.348,2.348,0,0,1,.342-1.1,2.145,2.145,0,0,1,.95-.8,4.508,4.508,0,0,1,1.862-.3,4.143,4.143,0,0,1,2.736.684,2.315,2.315,0,0,1,.836,1.52q.3,5.624.608,11.97t.532,12.35q.228,6,.342,11.21T359.632-24.092ZM344.052-7.6a8.221,8.221,0,0,0,3.268-.684,9.6,9.6,0,0,0,2.812-1.824,8.513,8.513,0,0,0,1.938-2.736,8.2,8.2,0,0,0,.722-3.42,8.492,8.492,0,0,0-.95-4.294,3.155,3.155,0,0,0-2.926-1.634,6.779,6.779,0,0,0-3.116.874A12.138,12.138,0,0,0,342.722-19a13.245,13.245,0,0,0-2.356,3.344,8.731,8.731,0,0,0-.95,3.952,3.6,3.6,0,0,0,1.368,3.078A5.292,5.292,0,0,0,344.052-7.6ZM385.7-4.94a8.443,8.443,0,0,1-2.28-.342,12.263,12.263,0,0,1-2.432-.988A11.69,11.69,0,0,1,378.67-7.9a9.009,9.009,0,0,1-1.862-2.356,15.741,15.741,0,0,1-1.558,2.394,3.045,3.045,0,0,1-2.47.874,3.046,3.046,0,0,1-2.736-1.14,3.987,3.987,0,0,1-.76-2.2,5.66,5.66,0,0,1,1.178-2.964,29.5,29.5,0,0,1,2.394-3.116q-.228-1.064-.418-2.432a21,21,0,0,1-.19-2.888,15.49,15.49,0,0,1,.874-5.054,14.383,14.383,0,0,1,2.546-4.56,13.22,13.22,0,0,1,4.18-3.306,12.61,12.61,0,0,1,5.852-1.292,9.931,9.931,0,0,1,5.89,1.748,15.5,15.5,0,0,1,4.142,4.37,19.915,19.915,0,0,1,2.47,5.624,21.349,21.349,0,0,1,.8,5.434,16.635,16.635,0,0,1-.3,3.116,20.341,20.341,0,0,1-.608,2.508,6.981,6.981,0,0,0,2.926,3.686,7,7,0,0,0,3.23.95,3.8,3.8,0,0,0,2.584-.8A12.458,12.458,0,0,0,408.5-11.1a18.3,18.3,0,0,1,1.558-1.786,3.14,3.14,0,0,1,2.318-.8,3.385,3.385,0,0,1,2.242.874,2.979,2.979,0,0,1,1.026,2.394,3.516,3.516,0,0,1-.3,1.444,8.3,8.3,0,0,1-1.292,2.242,11.007,11.007,0,0,1-2.356,2.2,13.822,13.822,0,0,1-3.344,1.71,12.5,12.5,0,0,1-4.256.684A10.041,10.041,0,0,1,400.9-2.66a16.4,16.4,0,0,1-3.04-1.368,16.727,16.727,0,0,1-2.584-1.824,12.524,12.524,0,0,1-1.824-1.9A11.089,11.089,0,0,1,390.07-5.7,11.889,11.889,0,0,1,385.7-4.94Zm-.76-24.624a3.944,3.944,0,0,0-2.66.912,6.349,6.349,0,0,0-1.672,2.28,12.18,12.18,0,0,0-.874,3,18.793,18.793,0,0,0-.266,3,10.53,10.53,0,0,0,.57,3.42,12.285,12.285,0,0,0,1.482,3,8.008,8.008,0,0,0,2.166,2.166,4.657,4.657,0,0,0,2.622.836,3.73,3.73,0,0,0,2.28-.8,7.908,7.908,0,0,0,1.862-2.014A11.073,11.073,0,0,0,391.7-16.34a7.988,7.988,0,0,0,.456-2.508,17.676,17.676,0,0,0-.342-3.078,13.188,13.188,0,0,0-1.178-3.534,9.248,9.248,0,0,0-2.242-2.888A5.1,5.1,0,0,0,384.94-29.564Zm16.188-1.444q-.076-.532-.152-1.52A2.013,2.013,0,0,1,401.2-33.9a3.06,3.06,0,0,1,2.128-1.254q1.216-.114,2.736-.266-.152-.988-.266-2.356t-.228-2.774q-.114-1.406-.19-2.736t-.076-2.394a4.911,4.911,0,0,1,.266-1.558,1.021,1.021,0,0,1,1.026-.8,12.248,12.248,0,0,0,1.938-.152,6.7,6.7,0,0,1,2.014,0,1.143,1.143,0,0,1,1.064.912q.152.76.38,2.508.076.912.19,2.052t.19,2.394l.152,2.508q.076,1.254.152,2.318,1.976,0,3.61.038t3.154.038h6.764q.912.076,1.52,1.33a3.372,3.372,0,0,1,.456,2.014,3.211,3.211,0,0,1-1.862,1.824,11.336,11.336,0,0,1-4.522.684l-8.436-.076a61.8,61.8,0,0,0,1.1,8.892,40.371,40.371,0,0,0,2.356,7.9,16.507,16.507,0,0,0,3.724,5.624,7.33,7.33,0,0,0,5.206,2.128,6.132,6.132,0,0,0,3.04-.722,9.24,9.24,0,0,0,2.28-1.786,16.2,16.2,0,0,0,1.748-2.242q.76-1.178,1.368-2.09a3.948,3.948,0,0,1,1.558-1.406,3.94,3.94,0,0,1,1.558-.342,3.144,3.144,0,0,1,1.178.228,3.731,3.731,0,0,1,.95.532,3.05,3.05,0,0,1,.874,1.254,4.054,4.054,0,0,1,.266,1.406,3.593,3.593,0,0,1-.532,1.824q-.836,1.368-1.976,3.116a17.2,17.2,0,0,1-2.85,3.306A14.844,14.844,0,0,1,431.186.57,13.128,13.128,0,0,1,425.828,1.6a14,14,0,0,1-8.018-2.28,18.459,18.459,0,0,1-5.7-6.384,36.935,36.935,0,0,1-3.648-9.842A85.185,85.185,0,0,1,406.6-29.64q-1.064-.076-2.014-.114a14.579,14.579,0,0,1-1.672-.152,4.648,4.648,0,0,1-1.216-.342A.938.938,0,0,1,401.128-31.008Zm35.264-2.356a6.151,6.151,0,0,1,1.254-2.546q.95-1.178,3.762-1.178a3.481,3.481,0,0,1,1.824.456,3.943,3.943,0,0,1,1.216,1.1,4.946,4.946,0,0,1,.684,1.368,4.257,4.257,0,0,1,.228,1.254,4.9,4.9,0,0,1-1.026,3.078q-1.026,1.33-3.61,1.33a6.1,6.1,0,0,1-3.078-.76q-1.33-.76-1.33-3.116v-.494A1.553,1.553,0,0,1,436.392-33.364ZM434.948-7.828a3.518,3.518,0,0,1-1.064-2.584,3.192,3.192,0,0,1,.494-1.71q.494-.8,1.064-1.634a17.492,17.492,0,0,0,1.064-1.786,4.462,4.462,0,0,0,.494-2.09,5.864,5.864,0,0,1,.646-3.078,2.876,2.876,0,0,1,2.622-1.026,6.7,6.7,0,0,1,2.128.266,2.938,2.938,0,0,1,1.216.76,3.684,3.684,0,0,1,.722,1.178q.266.684.494,1.444.532,1.748,1.254,3.838a17.38,17.38,0,0,0,1.862,3.838,10.45,10.45,0,0,0,2.85,2.926,7.538,7.538,0,0,0,4.37,1.178,5.511,5.511,0,0,0,3.458-1.14,19.994,19.994,0,0,0,2.736-2.546q1.254-1.406,2.356-2.546a3.226,3.226,0,0,1,2.318-1.14,4.78,4.78,0,0,1,2.2.646,2.689,2.689,0,0,1,1.216,2.622,4.271,4.271,0,0,1-.152,1.1,3.493,3.493,0,0,1-.608,1.178,21.321,21.321,0,0,1-5.966,5.89A14.484,14.484,0,0,1,454.48.228a11.941,11.941,0,0,1-8.094-2.66,25.924,25.924,0,0,1-5.586-7.22l-1.14,1.6a2.376,2.376,0,0,1-1.064.836,3.442,3.442,0,0,1-1.216.228,4.162,4.162,0,0,1-1.52-.266A2.086,2.086,0,0,1,434.948-7.828Zm27.816-2.584a13.029,13.029,0,0,1,1.216-5.472,15.218,15.218,0,0,1,3.306-4.674,16.618,16.618,0,0,1,4.826-3.23A14.064,14.064,0,0,1,477.888-25a19.11,19.11,0,0,1,1.938.114,10.636,10.636,0,0,1,2.166.456,4.789,4.789,0,0,1,1.862,1.1,3.177,3.177,0,0,1,.95,1.976,10.806,10.806,0,0,1,4.142,4.522,16.125,16.125,0,0,1,1.634,6.042,11.323,11.323,0,0,0,1.14.228,8.072,8.072,0,0,0,1.14.076,8.4,8.4,0,0,0,3.344-.684,21.57,21.57,0,0,0,3.42-1.9,3.149,3.149,0,0,1,1.9-.608,2.757,2.757,0,0,1,2.508,1.178,4,4,0,0,1,.76,2.09,3.581,3.581,0,0,1-1.1,2.622A8.5,8.5,0,0,1,500.992-6a14.9,14.9,0,0,1-3.382.988,19.063,19.063,0,0,1-3.154.3,15.841,15.841,0,0,1-2.166-.152q-1.1-.152-2.166-.38a12.14,12.14,0,0,1-4.256,6.422Q482.828,3.5,477.584,3.5A15.449,15.449,0,0,1,471.01,2.2a14.186,14.186,0,0,1-4.6-3.306,13.7,13.7,0,0,1-2.736-4.484A13.883,13.883,0,0,1,462.764-10.412Zm8.816-3.724a3.957,3.957,0,0,1,1.254-2.7,7.78,7.78,0,0,1,2.774-1.938H475a3.423,3.423,0,0,0-2.128.76,7.984,7.984,0,0,0-1.786,1.976,10.531,10.531,0,0,0-1.254,2.7,9.913,9.913,0,0,0-.456,2.926,5.994,5.994,0,0,0,.95,3.5,7.855,7.855,0,0,0,2.28,2.2,9.313,9.313,0,0,0,2.7,1.178,9.741,9.741,0,0,0,2.28.342,12.5,12.5,0,0,0,1.9-.152,6.138,6.138,0,0,0,1.824-.57,4.108,4.108,0,0,0,1.406-1.14,4.392,4.392,0,0,0,.8-1.938,23.81,23.81,0,0,1-3.344-1.14,40.348,40.348,0,0,1-3.952-1.862,21.469,21.469,0,0,1-3.268-2.128Q471.58-13.224,471.58-14.136Zm9.2-4.408a5.284,5.284,0,0,0-1.026.114,6.5,6.5,0,0,0-1.14.342,2.351,2.351,0,0,0-.95.684,1.721,1.721,0,0,0-.38,1.14A2.877,2.877,0,0,0,478-14.4a7.672,7.672,0,0,0,1.786,1.558,10.274,10.274,0,0,0,2.318,1.1,13.37,13.37,0,0,0,2.318.57,20.733,20.733,0,0,0-.456-2.242,14.083,14.083,0,0,0-.76-2.2,8.124,8.124,0,0,0-1.1-1.824A3.712,3.712,0,0,0,480.776-18.544ZM504.26-8.436a3.1,3.1,0,0,1-1.216,1.064,3.373,3.373,0,0,1-1.52.38,4.326,4.326,0,0,1-2.128-.722,2.792,2.792,0,0,1-1.216-2.622,4.465,4.465,0,0,1,.076-.8,2.356,2.356,0,0,1,.38-.874,43.593,43.593,0,0,1,3.04-4.826,47.722,47.722,0,0,1,3.838-4.712,27.221,27.221,0,0,1,4.028-3.61,6.507,6.507,0,0,1,3.686-1.444,5.332,5.332,0,0,1,4.028,1.672,16.646,16.646,0,0,1,2.736,3.876,19.457,19.457,0,0,1,4.408-4.37,8.617,8.617,0,0,1,5.016-1.71,5.243,5.243,0,0,1,3.344,1.14,12.236,12.236,0,0,1,2.584,2.85,30.3,30.3,0,0,1,2.09,3.686q.95,1.976,1.9,3.686a16.852,16.852,0,0,0,1.938,2.85,2.951,2.951,0,0,0,2.28,1.14q.532,0,.95-.038a2.392,2.392,0,0,0,.76-.19,5.92,5.92,0,0,0,.76-.418q.418-.266,1.026-.646a3.36,3.36,0,0,1,1.9-.684,2.827,2.827,0,0,1,2.508,1.1,3.913,3.913,0,0,1,.76,2.242,4.363,4.363,0,0,1-2.09,3.458Q548.036-5.4,543.552-5.4a12.039,12.039,0,0,1-5.4-1.064,11.31,11.31,0,0,1-3.5-2.622,13.86,13.86,0,0,1-2.2-3.382q-.836-1.824-1.558-3.382a18.737,18.737,0,0,0-1.444-2.622,2.172,2.172,0,0,0-1.862-1.064q-.608,0-1.33.988a13.009,13.009,0,0,0-1.368,2.47,23.084,23.084,0,0,0-1.1,3.154,11.43,11.43,0,0,0-.456,2.964,15.978,15.978,0,0,1-.114,1.976,5.132,5.132,0,0,1-.494,1.672,2.826,2.826,0,0,1-1.064,1.178,3.644,3.644,0,0,1-1.9.418,2.971,2.971,0,0,1-2.47-1.1,7.662,7.662,0,0,1-1.33-2.736,23.536,23.536,0,0,1-.684-3.572q-.228-1.938-.418-3.572a15.4,15.4,0,0,0-.532-2.736q-.342-1.1-1.1-1.1t-2.014,1.406q-1.254,1.406-2.622,3.23t-2.546,3.686Q504.868-9.348,504.26-8.436Zm60.116-16.416q-.3,0-1.52,1.406t-2.812,3.458q-1.6,2.052-3.192,4.294t-2.736,3.838q-.76,1.064-1.368,2.014a13.046,13.046,0,0,1-1.216,1.634,3.54,3.54,0,0,1-2.66,1.216,3.093,3.093,0,0,1-2.318-.988,3.281,3.281,0,0,1-.95-2.356,3.463,3.463,0,0,1,.532-1.9q1.672-2.28,3.952-5.586t4.712-6.384a47.359,47.359,0,0,1,4.75-5.244q2.318-2.166,4.066-2.166A8.223,8.223,0,0,1,568.9-29.83a14.084,14.084,0,0,1,3.724,4.674,24.874,24.874,0,0,1,2.2,6.46,35.976,35.976,0,0,1,.722,7.144v.494a.948.948,0,0,1-.076.418,14.972,14.972,0,0,0,1.672-.114,14.772,14.772,0,0,0,2.014-.38,11.669,11.669,0,0,0,1.938-.684,6.245,6.245,0,0,0,1.52-.95,2.857,2.857,0,0,1,1.1-.722,3.7,3.7,0,0,1,1.178-.19,3.4,3.4,0,0,1,2.318.912,3.093,3.093,0,0,1,1.026,2.432,3.611,3.611,0,0,1-1.52,3.04,11.733,11.733,0,0,1-3.61,1.786,26.739,26.739,0,0,1-4.37.95q-2.28.3-3.8.456a26.556,26.556,0,0,1-1.6,4.294,15.844,15.844,0,0,1-2.47,3.762,11.551,11.551,0,0,1-3.42,2.66,9.483,9.483,0,0,1-4.37.988q-5.092,0-7.714-2.128A6.731,6.731,0,0,1,552.748,0a6.737,6.737,0,0,1,1.33-3.99,12.583,12.583,0,0,1,3.534-3.268A19.6,19.6,0,0,1,562.666-9.5a25.347,25.347,0,0,1,5.89-.988,12.387,12.387,0,0,0,.228-2.432,17.794,17.794,0,0,0-.532-4.332A26.254,26.254,0,0,0,567-21.09a13.4,13.4,0,0,0-1.482-2.736Q564.756-24.852,564.376-24.852Zm-1.6,26.22a5.216,5.216,0,0,0,3.306-1.824A10.616,10.616,0,0,0,567.72-4.18q-1.14.076-2.394.19a10.57,10.57,0,0,0-2.394.494A5.212,5.212,0,0,0,560.88-2.2,5.19,5.19,0,0,0,559.588.38q0,.38.684.684a4.328,4.328,0,0,0,1.748.3Z" transform="translate(822.549 511.492)" fill="#e47d52"/>
  </g>
</svg>
