<svg xmlns="http://www.w3.org/2000/svg" {% if class is defined %}class="{{ class }}"{% endif %} width="357.4" height="85.377" viewBox="0 0 357.4 85.377">
  <g transform="translate(0 0)">
    <path class="outline" d="M714.687-526.46c11.477.073,30.748-1.718,30.748-1.718s3.289,2.7,11.977,2.75,13.5-2.75,13.5-2.75a26.033,26.033,0,0,0,14.454,2.75c8.017-.919,13.628-7.492,13.628-7.492s10.061,7.978,17.545,7.492,5.582,10.216,28.033,11.258,29.448-14.007,29.448-14.007,5.841,7.517,12.149,6.931,14.626-4.182,14.626-4.182,7.506,5.221,15.893,4.182a17.478,17.478,0,0,0,12.172-6.931s3.779,6.117,10.215,6.931,12.754-6.931,12.754-6.931a34.188,34.188,0,0,0,12.433,2.75c7.508.336,15.508-7.492,15.508-7.492s12.134,10.65,22.718,4.743,11.2,0,19.643,0,12.483-7.888,20.23-12.931-.859-16.317-6.2-21.523-14.026,0-14.026,0,2.923-5.749-8.51-17.07-31.765-13.53-33.851-4.069a90.414,90.414,0,0,1-4.185,14.4s-9.092-12.06-20.422-7.6-8.25-3.716-22.234-6.8-15.144,4.072-19.556,4.069-6.57-19.9-20.5-19.717-7.195,16.727-14.089,11.995S864-592.41,862.7-579.7s-9.831,11.178-20.083,10.332-14.2,3.543-23.143,6.738-.388-23.28-13.3-24.793-20.81,10.454-20.81,10.454,5.395-24.057-14.454-22.449-13.5,22.449-13.5,22.449a108.759,108.759,0,0,1-11.977,0c-4.621-.4-11.016,14.338-11.016,14.338s.2-7.7-13.83-14.338-28.51,7.6-28.51,7.6-8.46,15.478-.842,28.526S703.21-526.533,714.687-526.46Z" transform="translate(-688.057 599.496)" fill="#ece3cc"/>
    <path class="text" d="M13.32-14.544q-.072-1.656-.288-3.348a11.665,11.665,0,0,0-.792-3.06,5.892,5.892,0,0,0-1.584-2.232,4.065,4.065,0,0,0-2.736-.864,4.006,4.006,0,0,0-2.3.684,6.808,6.808,0,0,0-1.728,1.692,7.49,7.49,0,0,0-1.08,2.2,7.612,7.612,0,0,0-.36,2.2,9.094,9.094,0,0,0,.72,3.528,12.388,12.388,0,0,0,1.8,3.06A9.706,9.706,0,0,0,7.38-8.532,4.858,4.858,0,0,0,9.936-7.7a3.094,3.094,0,0,0,2.3-1.548Q13.392-10.8,13.32-14.544Zm4.608,3.6a16.592,16.592,0,0,1-.072,1.692,11.59,11.59,0,0,1-.432,1.908,10.078,10.078,0,0,1-2.2,4.068A6.283,6.283,0,0,1,11.52-1.44a9.164,9.164,0,0,1-5.328-.792,16.4,16.4,0,0,1-5-3.528,19.109,19.109,0,0,1-3.708-5.4A14.876,14.876,0,0,1-3.96-17.5a12.287,12.287,0,0,1,.972-4.824A13.516,13.516,0,0,1-.4-26.352a12.493,12.493,0,0,1,3.708-2.736A9.826,9.826,0,0,1,7.632-30.1a10.319,10.319,0,0,1,4.032.756,11.624,11.624,0,0,1,3.312,2.124,17.568,17.568,0,0,1,2.736,3.168,33.1,33.1,0,0,1,2.232,3.816,33.531,33.531,0,0,1,1.44,3.492q.792,2.2,1.764,4.284a22.631,22.631,0,0,0,2.052,3.6,2.954,2.954,0,0,0,2.3,1.512,2.8,2.8,0,0,0,1.62-.468,5.55,5.55,0,0,0,1.224-1.152q.54-.684,1.044-1.44t1.008-1.4A2.742,2.742,0,0,1,34.6-13a3.612,3.612,0,0,1,1.764.4,2.991,2.991,0,0,1,1.548,1.98,3.02,3.02,0,0,1-.54,2.7,19.174,19.174,0,0,1-4.752,4.788,9.34,9.34,0,0,1-5.328,1.908,5.986,5.986,0,0,1-3.456-.936A9.594,9.594,0,0,1,21.42-4.572,20.581,20.581,0,0,1,19.584-7.74Q18.792-9.432,17.928-10.944Zm47.088-.72a4.694,4.694,0,0,1,1.008-.864,2.928,2.928,0,0,1,1.656-.432,3.4,3.4,0,0,1,2.124.828,2.737,2.737,0,0,1,1.044,2.268A3.381,3.381,0,0,1,70.2-7.776a18.193,18.193,0,0,1-3.168,3.24,25.378,25.378,0,0,1-4.284,2.808A24.849,24.849,0,0,1,57.78.216a19.945,19.945,0,0,1-5.292.72,13.874,13.874,0,0,1-5.04-.864A12.718,12.718,0,0,1,43.524-2.3,14.288,14.288,0,0,1,40.68-5.8a19.149,19.149,0,0,1-1.8-4.14,10.374,10.374,0,0,1-.648,1.116A7.445,7.445,0,0,1,37.3-7.7a2.4,2.4,0,0,1-1.116.828,4.031,4.031,0,0,1-1.4.252,3.177,3.177,0,0,1-1.62-.36,3.342,3.342,0,0,1-.972-.828,2.845,2.845,0,0,1-.5-1.008,3.813,3.813,0,0,1-.144-.972,4.05,4.05,0,0,1,.576-1.8q.576-1.08,1.368-2.34t1.728-2.484q.936-1.224,1.584-2.232a43.119,43.119,0,0,1,1.836-4.5,16.381,16.381,0,0,1,2.592-3.924,12.624,12.624,0,0,1,3.636-2.808,10.686,10.686,0,0,1,4.968-1.08,10.933,10.933,0,0,1,6.48,1.836,14.635,14.635,0,0,1,4.176,4.5,2.826,2.826,0,0,1,.432,1.08,6.647,6.647,0,0,1,.072.936,2.99,2.99,0,0,1-1.008,2.34,3.194,3.194,0,0,1-2.16.9,3.32,3.32,0,0,1-2.34-.828A14.726,14.726,0,0,1,53.82-22a19.285,19.285,0,0,0-1.584-1.8,2.968,2.968,0,0,0-2.2-.828,4.98,4.98,0,0,0-2.592.684A5.806,5.806,0,0,0,45.54-22.1a9.155,9.155,0,0,0-1.152,2.556,10.69,10.69,0,0,0-.4,2.916,17.111,17.111,0,0,0,.612,4.68,11.746,11.746,0,0,0,1.764,3.744,8.3,8.3,0,0,0,2.844,2.484,7.922,7.922,0,0,0,3.78.9,11.224,11.224,0,0,0,4-.72,16.694,16.694,0,0,0,3.456-1.764A18.41,18.41,0,0,0,63.18-9.54,16.05,16.05,0,0,0,65.016-11.664ZM57.1-29.376q-.072-.5-.144-1.44a1.907,1.907,0,0,1,.216-1.3A2.9,2.9,0,0,1,59.184-33.3q1.152-.108,2.592-.252-.144-.936-.252-2.232t-.216-2.628Q61.2-39.744,61.128-41t-.072-2.268a4.653,4.653,0,0,1,.252-1.476.967.967,0,0,1,.972-.756,11.6,11.6,0,0,0,1.836-.144,6.351,6.351,0,0,1,1.908,0,1.083,1.083,0,0,1,1.008.864q.144.72.36,2.376.072.864.18,1.944t.18,2.268L67.9-35.82q.072,1.188.144,2.2,1.872,0,3.42.036t2.988.036h6.408q.864.072,1.44,1.26a3.2,3.2,0,0,1,.432,1.908,3.042,3.042,0,0,1-1.764,1.728,10.739,10.739,0,0,1-4.284.648l-7.992-.072a58.542,58.542,0,0,0,1.044,8.424,38.246,38.246,0,0,0,2.232,7.488A15.638,15.638,0,0,0,75.492-6.84a6.945,6.945,0,0,0,4.932,2.016,5.809,5.809,0,0,0,2.88-.684A8.754,8.754,0,0,0,85.464-7.2,15.348,15.348,0,0,0,87.12-9.324q.72-1.116,1.3-1.98a3.74,3.74,0,0,1,1.476-1.332,3.732,3.732,0,0,1,1.476-.324,2.979,2.979,0,0,1,1.116.216,3.535,3.535,0,0,1,.9.5,2.889,2.889,0,0,1,.828,1.188,3.841,3.841,0,0,1,.252,1.332,3.4,3.4,0,0,1-.5,1.728q-.792,1.3-1.872,2.952a16.293,16.293,0,0,1-2.7,3.132A14.063,14.063,0,0,1,85.572.54a12.437,12.437,0,0,1-5.076.972,13.264,13.264,0,0,1-7.6-2.16A17.488,17.488,0,0,1,67.5-6.7a34.99,34.99,0,0,1-3.456-9.324A80.7,80.7,0,0,1,62.28-28.08q-1.008-.072-1.908-.108a13.812,13.812,0,0,1-1.584-.144,4.4,4.4,0,0,1-1.152-.324A.888.888,0,0,1,57.1-29.376ZM90.5-31.608a5.827,5.827,0,0,1,1.188-2.412q.9-1.116,3.564-1.116a3.3,3.3,0,0,1,1.728.432,3.736,3.736,0,0,1,1.152,1.044,4.685,4.685,0,0,1,.648,1.3A4.033,4.033,0,0,1,99-31.176a4.641,4.641,0,0,1-.972,2.916A4.076,4.076,0,0,1,94.608-27a5.774,5.774,0,0,1-2.916-.72q-1.26-.72-1.26-2.952v-.468A1.472,1.472,0,0,1,90.5-31.608ZM89.136-7.416a3.333,3.333,0,0,1-1.008-2.448,3.024,3.024,0,0,1,.468-1.62q.468-.756,1.008-1.548a16.57,16.57,0,0,0,1.008-1.692,4.227,4.227,0,0,0,.468-1.98,5.555,5.555,0,0,1,.612-2.916,2.724,2.724,0,0,1,2.484-.972,6.348,6.348,0,0,1,2.016.252,2.784,2.784,0,0,1,1.152.72,3.49,3.49,0,0,1,.684,1.116q.252.648.468,1.368Q99-15.48,99.684-13.5a16.466,16.466,0,0,0,1.764,3.636,9.9,9.9,0,0,0,2.7,2.772,7.141,7.141,0,0,0,4.14,1.116,5.221,5.221,0,0,0,3.276-1.08,18.942,18.942,0,0,0,2.592-2.412q1.188-1.332,2.232-2.412a3.056,3.056,0,0,1,2.2-1.08,4.528,4.528,0,0,1,2.088.612,2.548,2.548,0,0,1,1.152,2.484,4.046,4.046,0,0,1-.144,1.044A3.31,3.31,0,0,1,121.1-7.7a20.2,20.2,0,0,1-5.652,5.58A13.721,13.721,0,0,1,107.64.216,11.313,11.313,0,0,1,99.972-2.3a24.559,24.559,0,0,1-5.292-6.84L93.6-7.632a2.251,2.251,0,0,1-1.008.792,3.261,3.261,0,0,1-1.152.216A3.943,3.943,0,0,1,90-6.876,1.977,1.977,0,0,1,89.136-7.416Zm35.712-4.968q-.576.72-1.62,2.088t-2.052,2.448a3.421,3.421,0,0,1-2.52,1.224,3.047,3.047,0,0,1-2.232-.936,3.047,3.047,0,0,1-.936-2.232,3.8,3.8,0,0,1,.5-1.8q.432-.72,1.26-1.872a16.1,16.1,0,0,1,2.052-2.3,12.555,12.555,0,0,1,2.808-1.98,7.5,7.5,0,0,1,3.528-.828,4.166,4.166,0,0,1,2.448.756,7.056,7.056,0,0,1,1.872,1.98,10.225,10.225,0,0,1,1.224,2.7,10.112,10.112,0,0,1,.432,2.844,19.548,19.548,0,0,1-.468,4.356,19.548,19.548,0,0,0-.468,4.356,17.083,17.083,0,0,0,.108,1.8,7.626,7.626,0,0,0,.432,1.872,4.7,4.7,0,0,0,.864,1.476,1.707,1.707,0,0,0,1.332.612,5.217,5.217,0,0,0,2.988-.9,9.806,9.806,0,0,0,2.376-2.3,12.876,12.876,0,0,0,1.692-3.1,25.55,25.55,0,0,0,1.008-3.2A8.074,8.074,0,0,1,136.836-9.5a14.727,14.727,0,0,1-1.4-6.408,5.806,5.806,0,0,1,.5-2.268,7.84,7.84,0,0,1,1.368-2.16,7.891,7.891,0,0,1,1.908-1.584,4.156,4.156,0,0,1,2.124-.612,6.6,6.6,0,0,1,3.744,1.008,7.24,7.24,0,0,1,2.376,2.592,11.8,11.8,0,0,1,1.224,3.564,21.9,21.9,0,0,1,.36,3.924q0,.792-.072,1.548a7.647,7.647,0,0,1-.288,1.476,6.013,6.013,0,0,0,1.98,1.08,6.934,6.934,0,0,0,1.98.288,6.426,6.426,0,0,0,2.34-.432A9.7,9.7,0,0,0,157.068-8.6a11.945,11.945,0,0,0,1.764-1.512,15.846,15.846,0,0,0,1.368-1.62,2.5,2.5,0,0,1,1.4-1.008,5.545,5.545,0,0,1,1.116-.216,2.988,2.988,0,0,1,2.2.9,3.166,3.166,0,0,1,.9,2.34,2.841,2.841,0,0,1-.216,1.188,4.552,4.552,0,0,1-.72,1.044q-.936,1.08-2.052,2.16a22.7,22.7,0,0,1-2.34,1.98,14.6,14.6,0,0,1-2.556,1.512,10.294,10.294,0,0,1-2.7.828,8.683,8.683,0,0,1-2.232,0,13.641,13.641,0,0,1-2.232-.468,17.177,17.177,0,0,1-1.98-.72,8.06,8.06,0,0,1-1.4-.756,20.875,20.875,0,0,1-1.836,5.04,17.671,17.671,0,0,1-3.1,4.32,14.806,14.806,0,0,1-4.14,2.988,11.088,11.088,0,0,1-4.9,1.116,7.179,7.179,0,0,1-3.636-.972,9.481,9.481,0,0,1-2.916-2.628,13.018,13.018,0,0,1-1.908-3.78,14.592,14.592,0,0,1-.684-4.5,22.518,22.518,0,0,1,.5-4.824,21.184,21.184,0,0,0,.5-4.536A2.928,2.928,0,0,0,124.848-12.384Zm18.216,2.376a5.025,5.025,0,0,0,.576-1.62,10.819,10.819,0,0,0,.216-2.2,7.321,7.321,0,0,0-.468-2.7,1.7,1.7,0,0,0-1.692-1.188,1.108,1.108,0,0,0-1.044.864,5.964,5.964,0,0,0-.324,2.088,8.169,8.169,0,0,0,.54,3.024A2.815,2.815,0,0,0,143.064-10.008Zm18.864-21.6a5.827,5.827,0,0,1,1.188-2.412q.9-1.116,3.564-1.116a3.3,3.3,0,0,1,1.728.432,3.736,3.736,0,0,1,1.152,1.044,4.685,4.685,0,0,1,.648,1.3,4.034,4.034,0,0,1,.216,1.188,4.641,4.641,0,0,1-.972,2.916,4.076,4.076,0,0,1-3.42,1.26,5.774,5.774,0,0,1-2.916-.72q-1.26-.72-1.26-2.952v-.468A1.472,1.472,0,0,1,161.928-31.608ZM160.56-7.416a3.333,3.333,0,0,1-1.008-2.448,3.024,3.024,0,0,1,.468-1.62q.468-.756,1.008-1.548a16.569,16.569,0,0,0,1.008-1.692,4.227,4.227,0,0,0,.468-1.98,5.555,5.555,0,0,1,.612-2.916,2.724,2.724,0,0,1,2.484-.972,6.348,6.348,0,0,1,2.016.252,2.784,2.784,0,0,1,1.152.72,3.49,3.49,0,0,1,.684,1.116q.252.648.468,1.368.5,1.656,1.188,3.636a16.466,16.466,0,0,0,1.764,3.636,9.9,9.9,0,0,0,2.7,2.772,7.141,7.141,0,0,0,4.14,1.116,5.221,5.221,0,0,0,3.276-1.08,18.943,18.943,0,0,0,2.592-2.412q1.188-1.332,2.232-2.412a3.056,3.056,0,0,1,2.2-1.08,4.528,4.528,0,0,1,2.088.612,2.548,2.548,0,0,1,1.152,2.484A4.047,4.047,0,0,1,193.1-8.82a3.31,3.31,0,0,1-.576,1.116,20.2,20.2,0,0,1-5.652,5.58,13.721,13.721,0,0,1-7.812,2.34A11.313,11.313,0,0,1,171.4-2.3a24.559,24.559,0,0,1-5.292-6.84l-1.08,1.512a2.251,2.251,0,0,1-1.008.792,3.261,3.261,0,0,1-1.152.216,3.943,3.943,0,0,1-1.44-.252A1.977,1.977,0,0,1,160.56-7.416ZM179.5-29.376q-.072-.5-.144-1.44a1.907,1.907,0,0,1,.216-1.3,2.9,2.9,0,0,1,2.016-1.188q1.152-.108,2.592-.252-.144-.936-.252-2.232t-.216-2.628q-.108-1.332-.18-2.592t-.072-2.268a4.653,4.653,0,0,1,.252-1.476.967.967,0,0,1,.972-.756,11.6,11.6,0,0,0,1.836-.144,6.351,6.351,0,0,1,1.908,0,1.083,1.083,0,0,1,1.008.864q.144.72.36,2.376.072.864.18,1.944t.18,2.268l.144,2.376q.072,1.188.144,2.2,1.872,0,3.42.036t2.988.036h6.408q.864.072,1.44,1.26a3.2,3.2,0,0,1,.432,1.908,3.042,3.042,0,0,1-1.764,1.728,10.739,10.739,0,0,1-4.284.648l-7.992-.072a58.542,58.542,0,0,0,1.044,8.424,38.247,38.247,0,0,0,2.232,7.488,15.638,15.638,0,0,0,3.528,5.328,6.945,6.945,0,0,0,4.932,2.016,5.809,5.809,0,0,0,2.88-.684,8.754,8.754,0,0,0,2.16-1.692,15.347,15.347,0,0,0,1.656-2.124q.72-1.116,1.3-1.98a3.74,3.74,0,0,1,1.476-1.332,3.732,3.732,0,0,1,1.476-.324,2.979,2.979,0,0,1,1.116.216,3.535,3.535,0,0,1,.9.5,2.889,2.889,0,0,1,.828,1.188,3.841,3.841,0,0,1,.252,1.332,3.4,3.4,0,0,1-.5,1.728q-.792,1.3-1.872,2.952a16.293,16.293,0,0,1-2.7,3.132A14.063,14.063,0,0,1,207.972.54a12.437,12.437,0,0,1-5.076.972,13.264,13.264,0,0,1-7.6-2.16A17.488,17.488,0,0,1,189.9-6.7a34.99,34.99,0,0,1-3.456-9.324,80.7,80.7,0,0,1-1.764-12.06q-1.008-.072-1.908-.108a13.813,13.813,0,0,1-1.584-.144,4.4,4.4,0,0,1-1.152-.324A.888.888,0,0,1,179.5-29.376ZM212.9-31.608a5.827,5.827,0,0,1,1.188-2.412q.9-1.116,3.564-1.116a3.3,3.3,0,0,1,1.728.432,3.736,3.736,0,0,1,1.152,1.044,4.685,4.685,0,0,1,.648,1.3,4.034,4.034,0,0,1,.216,1.188,4.641,4.641,0,0,1-.972,2.916,4.076,4.076,0,0,1-3.42,1.26,5.774,5.774,0,0,1-2.916-.72q-1.26-.72-1.26-2.952v-.468A1.472,1.472,0,0,1,212.9-31.608ZM211.536-7.416a3.333,3.333,0,0,1-1.008-2.448,3.024,3.024,0,0,1,.468-1.62q.468-.756,1.008-1.548a16.569,16.569,0,0,0,1.008-1.692,4.227,4.227,0,0,0,.468-1.98,5.555,5.555,0,0,1,.612-2.916,2.724,2.724,0,0,1,2.484-.972,6.348,6.348,0,0,1,2.016.252,2.784,2.784,0,0,1,1.152.72,3.49,3.49,0,0,1,.684,1.116q.252.648.468,1.368.5,1.656,1.188,3.636a16.467,16.467,0,0,0,1.764,3.636,9.9,9.9,0,0,0,2.7,2.772,7.141,7.141,0,0,0,4.14,1.116,5.221,5.221,0,0,0,3.276-1.08,18.943,18.943,0,0,0,2.592-2.412q1.188-1.332,2.232-2.412a3.056,3.056,0,0,1,2.2-1.08,4.528,4.528,0,0,1,2.088.612,2.548,2.548,0,0,1,1.152,2.484,4.047,4.047,0,0,1-.144,1.044A3.31,3.31,0,0,1,243.5-7.7a20.2,20.2,0,0,1-5.652,5.58A13.721,13.721,0,0,1,230.04.216a11.313,11.313,0,0,1-7.668-2.52,24.559,24.559,0,0,1-5.292-6.84L216-7.632a2.251,2.251,0,0,1-1.008.792,3.261,3.261,0,0,1-1.152.216,3.943,3.943,0,0,1-1.44-.252A1.977,1.977,0,0,1,211.536-7.416Zm43.056-18.5a8.629,8.629,0,0,1,.576,3.1,13.025,13.025,0,0,1-.648,3.924,21.216,21.216,0,0,1-1.764,4.032,21.119,21.119,0,0,1-2.7,3.744,19.747,19.747,0,0,1-3.456,3.06,10.279,10.279,0,0,0,1.584,1.116,6.715,6.715,0,0,0,1.548.612,8.614,8.614,0,0,0,1.872.252q1.044.036,2.7.036a7.6,7.6,0,0,0,4.284-1.08,12.513,12.513,0,0,0,2.7-2.376l1.98-2.376a2.829,2.829,0,0,1,2.268-1.08,3.421,3.421,0,0,1,.936.144,3.3,3.3,0,0,1,1.008.5,2.843,2.843,0,0,1,.828.936,3.072,3.072,0,0,1,.324,1.512,4.622,4.622,0,0,1-.072.828,2.924,2.924,0,0,1-.36.9,13.923,13.923,0,0,1-2.412,3.312A16.8,16.8,0,0,1,262.476-2.2a17.522,17.522,0,0,1-3.924,1.764A14.254,14.254,0,0,1,254.3.216a21.106,21.106,0,0,1-8.6-1.584,16.382,16.382,0,0,1-5.8-4.14,16.456,16.456,0,0,1-3.276-5.724,20.14,20.14,0,0,1-1.044-6.336,13.634,13.634,0,0,1,.864-4.68,15.216,15.216,0,0,1,2.376-4.284,12.348,12.348,0,0,1,3.6-3.1,8.883,8.883,0,0,1,4.464-1.188,7.819,7.819,0,0,1,2.268.36,10.069,10.069,0,0,1,2.268,1.008,8.559,8.559,0,0,1,1.908,1.548A6.446,6.446,0,0,1,254.592-25.92Zm-7.344,1.368a3.707,3.707,0,0,0-2.268.72A6,6,0,0,0,243.36-22a9.154,9.154,0,0,0-.972,2.448,10.811,10.811,0,0,0-.324,2.556,9.793,9.793,0,0,0,.216,2.124,3.072,3.072,0,0,0,.792,1.548,12.215,12.215,0,0,0,2.52-2.16,15.933,15.933,0,0,0,1.8-2.448,11.45,11.45,0,0,0,1.08-2.376,6.892,6.892,0,0,0,.36-2.016,2.944,2.944,0,0,0-.4-1.62A1.321,1.321,0,0,0,247.248-24.552Zm68.544,12.168a4.874,4.874,0,0,1,.72-.36,3.1,3.1,0,0,1,1.224-.216,3.481,3.481,0,0,1,2.016.792,2.606,2.606,0,0,1,1.08,2.232,3.776,3.776,0,0,1-.792,2.34,7.459,7.459,0,0,1-2.088,1.836A10.9,10.9,0,0,1,315-4.536a13.074,13.074,0,0,1-3.312.432,7.441,7.441,0,0,1-3.564-.828A23.572,23.572,0,0,1,305.172-6.8q-1.4-1.044-2.736-1.98a6.5,6.5,0,0,0-2.844-1.152,21.856,21.856,0,0,1-1.044,3.924,10.268,10.268,0,0,1-1.836,3.168A8.638,8.638,0,0,1,293.94-.72a8.511,8.511,0,0,1-3.78.792,9.863,9.863,0,0,1-3.924-.756A9.533,9.533,0,0,1,283.212-2.7a8.978,8.978,0,0,1-1.944-2.88,8.526,8.526,0,0,1-.684-3.348,7.309,7.309,0,0,1,1.368-4.716,8.377,8.377,0,0,1,3.384-2.52,15.762,15.762,0,0,1,4.212-1.08q2.2-.252,3.852-.324a10.823,10.823,0,0,0-1.332-3.852,33.077,33.077,0,0,0-2.736-4.356,26.472,26.472,0,0,0-3.168-3.6,4.516,4.516,0,0,0-2.556-1.512q-.648,0-.864.792a35.446,35.446,0,0,1-2.124,6.084,47.369,47.369,0,0,1-3.312,6.12,46.353,46.353,0,0,1-4.248,5.652,35.984,35.984,0,0,1-4.932,4.68,4.492,4.492,0,0,1-2.448.936,3.047,3.047,0,0,1-2.232-.936,3.131,3.131,0,0,1-.936-2.3,2.967,2.967,0,0,1,.936-2.16q2.592-2.52,4.9-5.04a44.71,44.71,0,0,0,4.14-5.256,31.57,31.57,0,0,0,3.06-5.76A25.765,25.765,0,0,0,277.2-34.7a4.837,4.837,0,0,1,1.26-2.88,3.338,3.338,0,0,1,2.484-1.08,11.818,11.818,0,0,1,6.444,2.124,27.086,27.086,0,0,1,5.976,5.328,34.269,34.269,0,0,1,4.572,7.02,23.129,23.129,0,0,1,2.3,7.2,6.59,6.59,0,0,1,3.24,1.188,32.885,32.885,0,0,1,2.88,2.232q1.368,1.188,2.664,2.124a4.324,4.324,0,0,0,2.52.936,5.234,5.234,0,0,0,2.592-.684A6.4,6.4,0,0,0,315.792-12.384ZM286.92-9.144a2.676,2.676,0,0,0,.9,2.052,3.221,3.221,0,0,0,2.268.828,2.547,2.547,0,0,0,2.088-1.152,6.96,6.96,0,0,0,.936-3.888h-1.368a9.557,9.557,0,0,0-3.42.54Q286.92-10.224,286.92-9.144Z" transform="translate(17.111 62.027)" fill="#e47d52"/>
  </g>
</svg>
