<svg xmlns="http://www.w3.org/2000/svg" width="130" height="34.907" viewBox="0 0 130 34.907">
  <path id="logo" d="M-3.825-17.683a1.043,1.043,0,0,1,.473-.767,1.617,1.617,0,0,1,.872-.242.962.962,0,0,1,.851.378,1.319,1.319,0,0,1,.263.756,1.406,1.406,0,0,1-.294.924,1.458,1.458,0,0,1-1.155.357,1.017,1.017,0,0,1-.735-.284,1.1,1.1,0,0,1-.294-.83v-.137A.651.651,0,0,1-3.825-17.683Zm.567,2.982a.668.668,0,0,1,.252-.294.912.912,0,0,1,.441-.084q.294,0,.5.021a.664.664,0,0,1,.347.126.61.61,0,0,1,.2.336,2.6,2.6,0,0,1,.063.651,5.956,5.956,0,0,0,.084.956q.084.515.2,1.019t.242.977q.126.473.189.851.483-.252.84-.452a5,5,0,0,0,.651-.431,4.66,4.66,0,0,0,.546-.5,6.677,6.677,0,0,0,.546-.693.753.753,0,0,1,.284-.231.911.911,0,0,1,.431-.105,1.057,1.057,0,0,1,.263.042.94.94,0,0,1,.3.147.906.906,0,0,1,.252.284.927.927,0,0,1,.105.473,1.463,1.463,0,0,1-.42.977,5.848,5.848,0,0,1-1.019.893,13.415,13.415,0,0,1-1.271.788Q.1-8.588-.381-8.294A28.07,28.07,0,0,1,.144-4.934Q.312-3.19.312-1.552q0,.525-.063,1.407A17.56,17.56,0,0,1,0,1.766,18.01,18.01,0,0,1-.517,3.846a8.253,8.253,0,0,1-.851,1.9,4.958,4.958,0,0,1-1.26,1.4,2.842,2.842,0,0,1-1.743.546,2.257,2.257,0,0,1-1.281-.378,3.677,3.677,0,0,1-.987-.987,6.8,6.8,0,0,1-.725-1.386,11.54,11.54,0,0,1-.494-1.586,13.2,13.2,0,0,1-.273-1.586A12.892,12.892,0,0,1-8.215.4a10.074,10.074,0,0,1,.483-3.182A11.184,11.184,0,0,1-6.451-5.448,13.552,13.552,0,0,1-4.623-7.664,20.01,20.01,0,0,1-2.481-9.491q-.084-.357-.231-.893t-.294-1.134q-.147-.6-.252-1.218a6.78,6.78,0,0,1-.105-1.124q0-.252.011-.473A.812.812,0,0,1-3.258-14.7Zm1.281,7.141a13.077,13.077,0,0,0-1.67,1.523A10.741,10.741,0,0,0-5.023-4.188a10.066,10.066,0,0,0-.935,2.1A7.487,7.487,0,0,0-6.3.17q0,.378.042.956t.126,1.208q.084.63.231,1.26a6.852,6.852,0,0,0,.357,1.124,2.89,2.89,0,0,0,.494.809.866.866,0,0,0,.662.315,1.088,1.088,0,0,0,.725-.3,3.623,3.623,0,0,0,.63-.735,5.382,5.382,0,0,0,.473-.882,6.177,6.177,0,0,0,.273-.767A18.248,18.248,0,0,0-1.756.506a21.847,21.847,0,0,0,.179-2.793V-3.442q0-.63-.042-1.313t-.126-1.4Q-1.83-6.866-1.977-7.559ZM3.085-14.07a.881.881,0,0,1,.588.179.49.49,0,0,1,.168.473q-.063.42-.147,1.029A7.66,7.66,0,0,0,3.62-11.2a2.9,2.9,0,0,0,.168.987.59.59,0,0,0,.6.41.963.963,0,0,0,.641-.221,1.891,1.891,0,0,0,.441-.546,4.264,4.264,0,0,0,.3-.7q.126-.378.252-.693a5.454,5.454,0,0,1,.347-.777.677.677,0,0,1,.641-.273,1.09,1.09,0,0,1,.525.105.743.743,0,0,1,.294.294,1.38,1.38,0,0,1,.147.462q.042.273.084.609a5.066,5.066,0,0,0,.2.756,6.619,6.619,0,0,0,.3.746,3.307,3.307,0,0,0,.347.578q.179.231.3.231a1.466,1.466,0,0,0,.872-.315,4.914,4.914,0,0,0,.819-.767,11.137,11.137,0,0,0,.735-.956q.347-.5.62-.882a.89.89,0,0,1,.347-.3.947.947,0,0,1,.41-.095.975.975,0,0,1,.609.21.862.862,0,0,1,.315.714.869.869,0,0,1-.053.294,1.842,1.842,0,0,1-.137.294q-.336.483-.767,1.113A8.3,8.3,0,0,1,12-8.746a5.7,5.7,0,0,1-1.25.945,3.081,3.081,0,0,1-1.533.389,1.946,1.946,0,0,1-.935-.231,2.819,2.819,0,0,1-.756-.588,3.5,3.5,0,0,1-.546-.8A2.887,2.887,0,0,1,6.7-9.89a1.316,1.316,0,0,1-.231.536,3.662,3.662,0,0,1-.536.641,3.055,3.055,0,0,1-.735.525,1.762,1.762,0,0,1-.809.21A2.278,2.278,0,0,1,3.2-8.273a2.7,2.7,0,0,1-.819-.746,3.011,3.011,0,0,1-.473-1.029,4.792,4.792,0,0,1-.147-1.187,12.27,12.27,0,0,1,.074-1.313,2.97,2.97,0,0,1,.263-1.04,1.264,1.264,0,0,1,.368-.378A1.31,1.31,0,0,1,3.085-14.07Zm13.379-5.776a17.781,17.781,0,0,1-.609,4.61,13.122,13.122,0,0,1-1.911,4.148q.084.5.189,1.145a7.811,7.811,0,0,0,.294,1.208,3.153,3.153,0,0,0,.5.966,1.038,1.038,0,0,0,.861.4,1.262,1.262,0,0,0,.956-.546,7.894,7.894,0,0,0,.861-1.313q.41-.767.809-1.586a8.842,8.842,0,0,1,.819-1.386.877.877,0,0,1,.735-.357.994.994,0,0,1,.6.231.792.792,0,0,1,.3.672,1.1,1.1,0,0,1-.168.588,20.229,20.229,0,0,0-.977,1.859A12.458,12.458,0,0,1,18.711-7.4,5.6,5.6,0,0,1,17.4-6.026a3.1,3.1,0,0,1-1.88.546,2.413,2.413,0,0,1-1.25-.3,2.936,2.936,0,0,1-.882-.809,4.46,4.46,0,0,1-.6-1.166A11.273,11.273,0,0,1,12.41-9.1q-.147-.683-.242-1.355t-.179-1.218q-.315-1.89-.536-3.77a32.873,32.873,0,0,1-.221-3.833q0-.861.053-1.712t.179-1.733a7.3,7.3,0,0,1,.231-1.04,5.354,5.354,0,0,1,.452-1.092,3.28,3.28,0,0,1,.683-.872,1.371,1.371,0,0,1,.945-.357,1.947,1.947,0,0,1,1.407.5,3.268,3.268,0,0,1,.809,1.365,8.718,8.718,0,0,1,.378,2Q16.464-21.085,16.464-19.846ZM14.658-21q0-.714-.042-1.334a8.245,8.245,0,0,0-.137-1.082,2.487,2.487,0,0,0-.252-.735.444.444,0,0,0-.368-.273q-.189,0-.336.315a3.811,3.811,0,0,0-.252.819,10.991,10.991,0,0,0-.168,1.124q-.063.62-.095,1.229t-.042,1.155q-.011.546-.011.882,0,.714.021,1.491t.063,1.523q.042.746.116,1.376a7.657,7.657,0,0,0,.179,1.029,4.662,4.662,0,0,0,.578-1.1,9.148,9.148,0,0,0,.41-1.554,19.242,19.242,0,0,0,.252-2.111Q14.658-19.447,14.658-21Zm3.886,1.05a1.276,1.276,0,0,1,.473-.767A1.451,1.451,0,0,1,19.929-21a1.094,1.094,0,0,1,.515.116,1.124,1.124,0,0,1,.357.284,1.133,1.133,0,0,1,.2.357,1.079,1.079,0,0,1,.063.336,1.243,1.243,0,0,1-.3.851,1.384,1.384,0,0,1-1.04.368,1.184,1.184,0,0,1-.882-.252A1.106,1.106,0,0,1,18.543-19.951Zm-.084,5.692A.785.785,0,0,1,18.648-15a1.184,1.184,0,0,1,.567-.326h.231a.818.818,0,0,1,.3.063,1.094,1.094,0,0,1,.3.189.707.707,0,0,1,.21.378,5.589,5.589,0,0,1,.179.956,9.626,9.626,0,0,0,.242,1.271,4.95,4.95,0,0,0,.483,1.208,1.653,1.653,0,0,0,.882.767,1.009,1.009,0,0,0,.756,0,2.249,2.249,0,0,0,.693-.431,4.843,4.843,0,0,0,.578-.62q.263-.336.431-.588a.849.849,0,0,1,.347-.326.993.993,0,0,1,.431-.095.87.87,0,0,1,.525.168.8.8,0,0,1,.378.567.857.857,0,0,1-.147.714q-.315.441-.662.882a5.107,5.107,0,0,1-.767.788,4.185,4.185,0,0,1-.924.578,3.214,3.214,0,0,1-1.134.273,3.017,3.017,0,0,1-1.9-.431A3.562,3.562,0,0,1,19.5-10.331a7.178,7.178,0,0,1-.651-1.859Q18.627-13.23,18.459-14.259Zm11.8-2.688a3.97,3.97,0,0,1,0,1.817,4.219,4.219,0,0,1-.725,1.491,6.337,6.337,0,0,1-1.271,1.25q-.756.567-1.617,1.092a2.521,2.521,0,0,0,.6.693,2.718,2.718,0,0,0,.746.42,3.68,3.68,0,0,0,.83.2,7.022,7.022,0,0,0,.851.053,3.657,3.657,0,0,0,1.239-.21,6.656,6.656,0,0,0,1.155-.546,9.445,9.445,0,0,0,1.1-.767q.536-.431,1.1-.872a1.4,1.4,0,0,1,.588-.231.711.711,0,0,1,.651.231.767.767,0,0,1,.231.336,1.189,1.189,0,0,1,.063.378,1.008,1.008,0,0,1-.063.357.754.754,0,0,1-.168.273,8.092,8.092,0,0,1-2.667,2.1,9.422,9.422,0,0,1-3.214.8,5.932,5.932,0,0,1-2.09-.242,5.084,5.084,0,0,1-1.764-.935A4.768,4.768,0,0,1,24.6-10.835a4.923,4.923,0,0,1-.494-2.142,8.667,8.667,0,0,1,.189-2.006,5.652,5.652,0,0,1,.672-1.743,4.043,4.043,0,0,1,1.155-1.25,3.175,3.175,0,0,1,1.638-.546,3.183,3.183,0,0,1,1.029.074,2.1,2.1,0,0,1,.735.336,1.774,1.774,0,0,1,.473.525A2.423,2.423,0,0,1,30.263-16.947Zm-2.625.273a1.525,1.525,0,0,0-.777.578,3.463,3.463,0,0,0-.494.977,5.12,5.12,0,0,0-.231,1.155,4.455,4.455,0,0,0,.032,1.113,10.33,10.33,0,0,0,.9-.693,5.459,5.459,0,0,0,.767-.8,3.691,3.691,0,0,0,.515-.893,2.282,2.282,0,0,0,.168-.956.544.544,0,0,0-.315-.462A.724.724,0,0,0,27.638-16.674Zm25.629.273a.654.654,0,0,1,.483-.189.735.735,0,0,1,.21.053,1.037,1.037,0,0,1,.284.158,1.291,1.291,0,0,1,.252.263.573.573,0,0,1,.116.347.637.637,0,0,1-.063.231q-.378.777-.945,1.806T52.49-11.676a6.45,6.45,0,0,0,.977.819q.6.42,1.082.8a3.2,3.2,0,0,1,.41.4.64.64,0,0,1,.158.42.856.856,0,0,1-.168.494.692.692,0,0,1-.609.242,1.935,1.935,0,0,1-.693-.137,4.512,4.512,0,0,1-.693-.336q-.336-.2-.651-.431t-.567-.441a.51.51,0,0,0-.074-.063.509.509,0,0,1-.074-.063,12.018,12.018,0,0,1-1.2,1.785,7.009,7.009,0,0,1-1.481,1.365,6.525,6.525,0,0,1-1.88.872,8.522,8.522,0,0,1-2.373.3,7.586,7.586,0,0,1-2.09-.273,4.838,4.838,0,0,1-1.649-.809,3.642,3.642,0,0,1-1.071-1.323,4.151,4.151,0,0,1-.378-1.817,6.44,6.44,0,0,1,.252-1.68,15.086,15.086,0,0,1,.515-1.586,11.994,11.994,0,0,1,.672-1.428q.389-.7.893-1.47t1.176-1.712a5.6,5.6,0,0,1,.546-.662,3.924,3.924,0,0,0,.525-.683q-.4-.651-.725-1.2a10.73,10.73,0,0,1-.567-1.082,9.3,9.3,0,0,1-.42-1.124,8.909,8.909,0,0,1-.284-1.323,1.18,1.18,0,0,1-.021-.231V-24.3a3.767,3.767,0,0,1,.147-1.04,2.967,2.967,0,0,1,.452-.935,2.435,2.435,0,0,1,.756-.683,2.116,2.116,0,0,1,1.082-.263,2.742,2.742,0,0,1,2.195.84,4.113,4.113,0,0,1,.725,2.709,9.667,9.667,0,0,1-.294,2.352,9.006,9.006,0,0,1-.882,2.226q.588.777,1.187,1.617t1.218,1.659q.62.819,1.239,1.575a14.449,14.449,0,0,0,1.292,1.386q.294-.5.609-1.05t.6-1.029q.284-.483.515-.872A5.468,5.468,0,0,1,53.267-16.4Zm-11.8,6.154a1.018,1.018,0,0,0-.021.2v.2a2.331,2.331,0,0,0,.273,1.2,1.859,1.859,0,0,0,.756.714,3.537,3.537,0,0,0,1.134.347,9.977,9.977,0,0,0,1.428.095,4.046,4.046,0,0,0,1.544-.3,6.156,6.156,0,0,0,1.407-.809A7.539,7.539,0,0,0,49.213-9.8a9.369,9.369,0,0,0,.987-1.439A31.81,31.81,0,0,1,47.6-14.1a40.015,40.015,0,0,1-2.415-3.329,13.652,13.652,0,0,0-1.082,1.4q-.473.7-.977,1.439a12.535,12.535,0,0,0-1.071,2.006A7.529,7.529,0,0,0,41.463-10.247ZM43.9-24.026a7.3,7.3,0,0,0,.053.9,5.309,5.309,0,0,0,.168.819,4.857,4.857,0,0,0,.326.819,9.213,9.213,0,0,0,.525.9,12.862,12.862,0,0,0,.536-1.628,6.623,6.623,0,0,0,.179-1.586,2.261,2.261,0,0,0-.074-.546,1.961,1.961,0,0,0-.21-.525,1.479,1.479,0,0,0-.326-.389.64.64,0,0,0-.42-.158.6.6,0,0,0-.578.378A2.387,2.387,0,0,0,43.9-24.026ZM63.669-13.02q-.021-.483-.084-.977a3.4,3.4,0,0,0-.231-.893,1.718,1.718,0,0,0-.462-.651,1.186,1.186,0,0,0-.8-.252,1.169,1.169,0,0,0-.672.2,1.986,1.986,0,0,0-.5.494,2.185,2.185,0,0,0-.315.641,2.22,2.22,0,0,0-.105.641,2.653,2.653,0,0,0,.21,1.029,3.614,3.614,0,0,0,.525.893,2.831,2.831,0,0,0,.7.63,1.417,1.417,0,0,0,.746.242.9.9,0,0,0,.672-.452A2.579,2.579,0,0,0,63.669-13.02Zm1.344,1.05a4.841,4.841,0,0,1-.021.494,3.382,3.382,0,0,1-.126.557,2.94,2.94,0,0,1-.641,1.187,1.833,1.833,0,0,1-1.082.536,2.673,2.673,0,0,1-1.554-.231,4.785,4.785,0,0,1-1.46-1.029,5.575,5.575,0,0,1-1.082-1.575,4.339,4.339,0,0,1-.42-1.848,3.584,3.584,0,0,1,.284-1.407,3.943,3.943,0,0,1,.756-1.176,3.644,3.644,0,0,1,1.082-.8,2.866,2.866,0,0,1,1.26-.294,3.01,3.01,0,0,1,1.176.221,3.391,3.391,0,0,1,.966.62,5.125,5.125,0,0,1,.8.924,9.657,9.657,0,0,1,.651,1.113,9.783,9.783,0,0,1,.42,1.019q.231.641.515,1.25a6.6,6.6,0,0,0,.6,1.05.862.862,0,0,0,.672.441.816.816,0,0,0,.473-.137,1.619,1.619,0,0,0,.357-.336q.158-.2.3-.42t.294-.41a.8.8,0,0,1,.641-.347,1.054,1.054,0,0,1,.515.116.873.873,0,0,1,.452.578.881.881,0,0,1-.158.788,5.594,5.594,0,0,1-1.386,1.4,2.725,2.725,0,0,1-1.554.557,1.746,1.746,0,0,1-1.008-.273,2.8,2.8,0,0,1-.7-.7,6,6,0,0,1-.536-.924Q65.265-11.529,65.013-11.97Zm4.369-6.217a1.132,1.132,0,0,1,.315-.074q.147-.011.294-.011.756,0,.756,1.47v.693q0,.441-.011.9t-.011.882v.651a5.132,5.132,0,0,0,.147,1.229,3.371,3.371,0,0,0,.452,1.061,2.476,2.476,0,0,0,.756.746,1.953,1.953,0,0,0,1.061.284,1.879,1.879,0,0,0,1.1-.315,2.412,2.412,0,0,0,.735-.83,4.99,4.99,0,0,0,.452-1.166q.168-.651.284-1.313t.189-1.292a10.476,10.476,0,0,1,.179-1.092.99.99,0,0,1,.326-.462,1,1,0,0,1,.683-.231,3.776,3.776,0,0,1,.494.042.47.47,0,0,1,.389.21,3.594,3.594,0,0,1,.326.893q.137.557.263,1.208t.263,1.313a7,7,0,0,0,.357,1.208,2.818,2.818,0,0,0,.536.882,1.023,1.023,0,0,0,.777.336,1.093,1.093,0,0,0,.809-.357q.347-.357.956-.966a.865.865,0,0,1,.326-.221,1.023,1.023,0,0,1,.326-.053.8.8,0,0,1,.746.326,1.192,1.192,0,0,1,.2.62,1.143,1.143,0,0,1-.105.42,5.75,5.75,0,0,1-.41.567,4.039,4.039,0,0,1-.746.7,4.978,4.978,0,0,1-1.061.6,3.462,3.462,0,0,1-1.355.252,2.138,2.138,0,0,1-1.124-.273,2.754,2.754,0,0,1-.777-.7A5.138,5.138,0,0,1,77.71-11l-.473-1.029a7.533,7.533,0,0,1-.6,1.25,5.851,5.851,0,0,1-.851,1.113,4.189,4.189,0,0,1-1.1.809,3.149,3.149,0,0,1-1.355.336A4.375,4.375,0,0,1,70.9-9.071a3.644,3.644,0,0,1-1.344-1.481,5.957,5.957,0,0,1-.567-2.058,22.889,22.889,0,0,1-.116-2.3q0-.483.011-.945t.01-.882q0-.126.011-.357a3.183,3.183,0,0,1,.053-.452,1.237,1.237,0,0,1,.147-.4A.533.533,0,0,1,69.382-18.187Zm17.811,2.541q-.084,0-.42.389T86-14.3q-.441.567-.882,1.187l-.756,1.061q-.21.294-.378.557a3.605,3.605,0,0,1-.336.452.978.978,0,0,1-.735.336.855.855,0,0,1-.641-.273A.907.907,0,0,1,82-11.634a.957.957,0,0,1,.147-.525q.462-.63,1.092-1.544t1.3-1.764a13.089,13.089,0,0,1,1.313-1.449,1.8,1.8,0,0,1,1.124-.6,2.273,2.273,0,0,1,1.46.494,3.892,3.892,0,0,1,1.029,1.292,6.874,6.874,0,0,1,.609,1.785,9.942,9.942,0,0,1,.2,1.974v.137a.262.262,0,0,1-.021.116,4.137,4.137,0,0,0,.462-.032,4.081,4.081,0,0,0,.557-.105,3.225,3.225,0,0,0,.536-.189,1.726,1.726,0,0,0,.42-.263.789.789,0,0,1,.3-.2,1.023,1.023,0,0,1,.326-.053.939.939,0,0,1,.641.252.855.855,0,0,1,.284.672,1,1,0,0,1-.42.84,3.242,3.242,0,0,1-1,.494,7.389,7.389,0,0,1-1.208.263q-.63.084-1.05.126a7.339,7.339,0,0,1-.441,1.187,4.379,4.379,0,0,1-.683,1.04,3.192,3.192,0,0,1-.945.735,2.621,2.621,0,0,1-1.208.273A3.321,3.321,0,0,1,84.7-7.265a1.86,1.86,0,0,1-.725-1.512,1.862,1.862,0,0,1,.368-1.1,3.477,3.477,0,0,1,.977-.9,5.416,5.416,0,0,1,1.4-.62,7,7,0,0,1,1.628-.273,3.424,3.424,0,0,0,.063-.672,4.917,4.917,0,0,0-.147-1.2,7.255,7.255,0,0,0-.347-1.061,3.7,3.7,0,0,0-.41-.756Q87.3-15.645,87.193-15.645ZM86.752-8.4a1.441,1.441,0,0,0,.914-.5,2.934,2.934,0,0,0,.452-1.029q-.315.021-.662.053a2.921,2.921,0,0,0-.662.137,1.44,1.44,0,0,0-.567.357,1.434,1.434,0,0,0-.357.714q0,.105.189.189a1.2,1.2,0,0,0,.483.084Zm2.73-11.447a.476.476,0,0,1-.126-.294,2.846,2.846,0,0,1-.021-.294.607.607,0,0,1,.441-.62,2.727,2.727,0,0,1,.924-.158h.42q0-1.113.084-2.163t.084-2.184A.479.479,0,0,1,91.54-26a1.329,1.329,0,0,1,.672-.147,1.649,1.649,0,0,1,.767.179.675.675,0,0,1,.347.662q0,.42-.021.966t-.032,1.124q-.01.578-.032,1.124t-.021.987h.8q1.155,0,2.31-.053t2.289-.137a.878.878,0,0,1,.735.294.951.951,0,0,1,.231.588,1.528,1.528,0,0,1-.021.179.746.746,0,0,1-.126.294.942.942,0,0,1-.326.284,1.259,1.259,0,0,1-.62.126q-1.113.063-2.31.126t-2.142.063h-.42a2.882,2.882,0,0,1-.357-.021q-.063.63-.063,1.344a15.576,15.576,0,0,0,.221,2.646,7.574,7.574,0,0,0,.735,2.258A4.341,4.341,0,0,0,95.51-11.55a3.574,3.574,0,0,0,2.1.588,6.838,6.838,0,0,0,2.268-.389,8.219,8.219,0,0,0,2.037-1.04.706.706,0,0,1,.273-.126,1.18,1.18,0,0,1,.273-.042,1.046,1.046,0,0,1,.63.252.831.831,0,0,1,.273.672,1.014,1.014,0,0,1-.189.588,3.989,3.989,0,0,1-1.061.914,7.523,7.523,0,0,1-1.376.651,9.123,9.123,0,0,1-1.533.4,9.212,9.212,0,0,1-1.554.137,6.6,6.6,0,0,1-2.426-.41,5.483,5.483,0,0,1-1.775-1.1,5.716,5.716,0,0,1-1.2-1.617A9.946,9.946,0,0,1,91.53-14a13.229,13.229,0,0,1-.368-2.027,19.279,19.279,0,0,1-.105-1.953q0-.756.063-1.386a6.031,6.031,0,0,1-1.029-.147A1.107,1.107,0,0,1,89.482-19.846Zm11.552-.105a1.276,1.276,0,0,1,.473-.767A1.451,1.451,0,0,1,102.42-21a1.094,1.094,0,0,1,.515.116,1.123,1.123,0,0,1,.357.284,1.133,1.133,0,0,1,.2.357,1.079,1.079,0,0,1,.063.336,1.243,1.243,0,0,1-.3.851,1.384,1.384,0,0,1-1.04.368,1.184,1.184,0,0,1-.882-.252A1.106,1.106,0,0,1,101.034-19.951Zm-.084,5.692a.785.785,0,0,1,.189-.746,1.184,1.184,0,0,1,.567-.326h.231a.818.818,0,0,1,.3.063,1.094,1.094,0,0,1,.3.189.707.707,0,0,1,.21.378,5.59,5.59,0,0,1,.179.956,9.623,9.623,0,0,0,.242,1.271,4.95,4.95,0,0,0,.483,1.208,1.653,1.653,0,0,0,.882.767,1.009,1.009,0,0,0,.756,0,2.25,2.25,0,0,0,.693-.431,4.844,4.844,0,0,0,.578-.62q.263-.336.431-.588a.849.849,0,0,1,.347-.326.993.993,0,0,1,.431-.095.87.87,0,0,1,.525.168.8.8,0,0,1,.378.567.857.857,0,0,1-.147.714q-.315.441-.662.882a5.107,5.107,0,0,1-.767.788,4.185,4.185,0,0,1-.924.578,3.214,3.214,0,0,1-1.134.273,3.017,3.017,0,0,1-1.9-.431,3.562,3.562,0,0,1-1.155-1.313,7.179,7.179,0,0,1-.651-1.859Q101.118-13.23,100.95-14.259Zm7.582,3.15a.856.856,0,0,1-.336.294.932.932,0,0,1-.42.105,1.2,1.2,0,0,1-.588-.2.771.771,0,0,1-.336-.725,1.235,1.235,0,0,1,.021-.221.651.651,0,0,1,.105-.242,12.044,12.044,0,0,1,.84-1.334,13.189,13.189,0,0,1,1.061-1.3,7.524,7.524,0,0,1,1.113-1,1.8,1.8,0,0,1,1.019-.4,1.474,1.474,0,0,1,1.113.462,4.6,4.6,0,0,1,.756,1.071A5.377,5.377,0,0,1,114.1-15.8a2.382,2.382,0,0,1,1.386-.473,1.449,1.449,0,0,1,.924.315,3.381,3.381,0,0,1,.714.788,8.377,8.377,0,0,1,.578,1.019q.263.546.525,1.019a4.656,4.656,0,0,0,.536.788.815.815,0,0,0,.63.315q.147,0,.263-.011a.661.661,0,0,0,.21-.053,1.636,1.636,0,0,0,.21-.116l.284-.179a.928.928,0,0,1,.525-.189.781.781,0,0,1,.693.3,1.081,1.081,0,0,1,.21.62,1.206,1.206,0,0,1-.578.956,3.059,3.059,0,0,1-1.817.431,3.327,3.327,0,0,1-1.491-.294,3.126,3.126,0,0,1-.966-.725,3.831,3.831,0,0,1-.609-.935q-.231-.5-.431-.935a5.177,5.177,0,0,0-.4-.725.6.6,0,0,0-.515-.294q-.168,0-.368.273a3.6,3.6,0,0,0-.378.683,6.377,6.377,0,0,0-.3.872,3.159,3.159,0,0,0-.126.819,4.413,4.413,0,0,1-.032.546,1.419,1.419,0,0,1-.137.462.781.781,0,0,1-.294.326,1.007,1.007,0,0,1-.525.116.821.821,0,0,1-.683-.3,2.118,2.118,0,0,1-.368-.756,6.5,6.5,0,0,1-.189-.987q-.063-.536-.116-.987a4.255,4.255,0,0,0-.147-.756q-.095-.3-.3-.3t-.557.389q-.347.389-.725.893t-.7,1.019Q108.7-11.361,108.532-11.109Z" transform="translate(8.215 27.218)" fill="#2a2b2d"/>
</svg>
