<svg xmlns="http://www.w3.org/2000/svg" width="270.587" height="125.312" viewBox="0 0 270.587 125.312">
  <g transform="translate(-927.521 -223.017)">
    <path class="outline" d="M687.69-563.488c.853-7.622,5.272-7.2,5.039-14.654s-10.018-24.21,0-24.3,13.152,3.814,21.666,2.844,11.927-7.416,18.438-2.844,8.4.048,16.189,2.844,6.294,11,13.525,8.829,15.521-6.867,20.923-4.637,4.82-9.386,15.617-8.809,17.38,6.6,17.852,13.447,10.75-.527,15.586-8.829-1.935-28.112,13.916-27.881,22.441,1.452,21.824,10.853,12.919,4.061,17.045,10.1.444,7.927,11.55,6.925,19.037-3.056,18.538,4.192,6.223,6.807,13.372,6.537,14.209,2.932,20.589,7.553,13.58,13.531,4.751,24.7-13.77,11.458-16.053,25.842-6.518,28.648-20.193,28.61-24.959-7.546-19.837-20.679,17.782-19.7,16.1-24.463-3.028-6.2-11.946-5.9-11.459-3.411-11.459-3.411-8.69,10.046-22.458,9.31-14.336-4.634-14.336-4.634-5.19,9.079-14.651,8.837-20.718-6.03-20.718-6.03-2.728-.065-8.274-2.807-13.061.941-11.2,11.883-.134,25.942-18.405,24.988-19.179-15.272-18.135-23.2a30.246,30.246,0,0,1,5.682-13.668,38.633,38.633,0,0,1-13.95,2.807c-7.5-.02-15.862,3.817-21.447,0s-6.132.618-13.229-4.072-9.16-3.44-16.607-3.411S686.837-555.866,687.69-563.488Z" transform="translate(239.888 850.502)" fill="#ece3cc"/>
    <path class="text" d="M7.133,3.748q.066.726.1,1.552t.033,1.882a35.039,35.039,0,0,1-.594,6.109,17.1,17.1,0,0,1-2.708,6.5,2.947,2.947,0,0,1-2.51,1.453A2.738,2.738,0,0,1-.66,20.39a3,3,0,0,1-.792-2.113A2.9,2.9,0,0,1-.99,16.691,13.926,13.926,0,0,0,1.024,12.1a21.62,21.62,0,0,0,.561-4.92A12.6,12.6,0,0,0,.892,3.054,12.6,12.6,0,0,1,.2-1.073a1.2,1.2,0,0,1,.892-1.189,5.191,5.191,0,0,1,1.816-.33,6.665,6.665,0,0,1,1.552.2q.825.2,1.816.4t2.278.4a18.991,18.991,0,0,0,2.873.2,8.654,8.654,0,0,0,2.146-.3q1.156-.3,2.245-.693t1.948-.693a4.488,4.488,0,0,1,1.387-.3,3.149,3.149,0,0,1,1.981.726,2.193,2.193,0,0,1,.925,1.783q0,.726-.2,3.467t-.2,6.439q0,1.981.165,3.929a24.532,24.532,0,0,0,.528,3.5,9.111,9.111,0,0,0,.925,2.51,1.638,1.638,0,0,0,1.42.958,2.356,2.356,0,0,0,1.024-.33,8.2,8.2,0,0,0,1.321-.892q.693-.561,1.354-1.189T29.653,16.3a1.834,1.834,0,0,1,.958-.693,3.657,3.657,0,0,1,1.024-.165,2.82,2.82,0,0,1,2.08.825,2.741,2.741,0,0,1,.825,2.014,3.16,3.16,0,0,1-.66,1.981,8.735,8.735,0,0,1-1.024.991q-.561.462-1.354,1.255a11.467,11.467,0,0,1-3.566,2.476,8.7,8.7,0,0,1-3.368.825,6.3,6.3,0,0,1-5.151-2.245,14.217,14.217,0,0,1-2.708-5.646,31.094,31.094,0,0,1-.892-7.363,61.856,61.856,0,0,1,.363-7.462A17.293,17.293,0,0,1,14,3.946a8.181,8.181,0,0,1-2.576.462,14.851,14.851,0,0,1-2.08-.165A14.083,14.083,0,0,1,7.133,3.748ZM47.351,1.634a12.482,12.482,0,0,1,0,5.712,13.264,13.264,0,0,1-2.278,4.689,19.924,19.924,0,0,1-4,3.929Q38.7,17.748,35.992,19.4a7.926,7.926,0,0,0,1.882,2.179A8.546,8.546,0,0,0,40.219,22.9a11.571,11.571,0,0,0,2.609.627,22.079,22.079,0,0,0,2.675.165,11.5,11.5,0,0,0,3.9-.66,20.928,20.928,0,0,0,3.632-1.717A29.7,29.7,0,0,0,56.5,18.9q1.684-1.354,3.467-2.741a4.4,4.4,0,0,1,1.849-.726,2.236,2.236,0,0,1,2.047.726,2.411,2.411,0,0,1,.726,1.057,3.739,3.739,0,0,1,.2,1.189,3.171,3.171,0,0,1-.2,1.123,2.37,2.37,0,0,1-.528.859,25.443,25.443,0,0,1-8.387,6.6,29.626,29.626,0,0,1-10.1,2.51A18.651,18.651,0,0,1,39,28.744,15.985,15.985,0,0,1,33.45,25.8a14.992,14.992,0,0,1-3.9-4.953A15.479,15.479,0,0,1,28,14.116,27.252,27.252,0,0,1,28.6,7.809a17.77,17.77,0,0,1,2.113-5.481A12.713,12.713,0,0,1,34.341-1.6a9.983,9.983,0,0,1,5.151-1.717,10.01,10.01,0,0,1,3.236.231A6.6,6.6,0,0,1,45.04-2.031,5.578,5.578,0,0,1,46.526-.38,7.62,7.62,0,0,1,47.351,1.634ZM39.1,2.493a4.8,4.8,0,0,0-2.443,1.816A10.887,10.887,0,0,0,35.1,7.38a16.1,16.1,0,0,0-.726,3.632,14.008,14.008,0,0,0,.1,3.5,32.48,32.48,0,0,0,2.84-2.179,17.164,17.164,0,0,0,2.41-2.51,11.605,11.605,0,0,0,1.618-2.807,7.174,7.174,0,0,0,.528-3,1.71,1.71,0,0,0-.991-1.453A2.276,2.276,0,0,0,39.1,2.493Zm20.67,16.18a21.458,21.458,0,0,1,.958-4.953A18.149,18.149,0,0,1,63.2,8.635a14.3,14.3,0,0,1,4.16-3.962,11.022,11.022,0,0,1,6.01-1.585A7.522,7.522,0,0,1,77.7,4.276a9.761,9.761,0,0,1,2.84,2.939,12.262,12.262,0,0,1,1.552,3.764,16.756,16.756,0,0,1,.462,3.731,13.937,13.937,0,0,1-.2,2.212,10.458,10.458,0,0,1-.594,2.212q.2.792.462,1.948t.5,2.344q.231,1.189.462,2.311t.363,1.915Q85.39,26,86.711,24.583t2.377-2.708Q90.145,20.588,91,19.333t1.783-2.642a2.8,2.8,0,0,1,1.09-.958,2.977,2.977,0,0,1,1.288-.3,2.823,2.823,0,0,1,2.906,2.906,3.122,3.122,0,0,1-.462,1.585q-1.717,2.708-3.137,4.557a36.7,36.7,0,0,1-2.84,3.3q-1.42,1.453-2.939,2.807t-3.5,3.137q.33,1.189.759,3t.825,4q.4,2.179.693,4.59a39.1,39.1,0,0,1,.3,4.788,28.782,28.782,0,0,1-.429,5.052,12.348,12.348,0,0,1-1.519,4.227,8.347,8.347,0,0,1-2.906,2.906,8.942,8.942,0,0,1-4.656,1.09,7.786,7.786,0,0,1-3.962-.991,9.4,9.4,0,0,1-2.906-2.609,11.492,11.492,0,0,1-1.783-3.731,16.267,16.267,0,0,1-.594-4.425,23.494,23.494,0,0,1,.693-5.514,29.109,29.109,0,0,1,1.948-5.547,29.981,29.981,0,0,1,3-5.052,22.167,22.167,0,0,1,3.863-4.094q-.2-.925-.4-1.651t-.363-1.42q-.165-.693-.33-1.519T77,24.88a10.517,10.517,0,0,1-4.524,2.047,24.267,24.267,0,0,1-4.788.528,10.306,10.306,0,0,1-3.9-.627,6,6,0,0,1-2.41-1.717,6.407,6.407,0,0,1-1.255-2.576,13.463,13.463,0,0,1-.363-3.2ZM73.107,8.635a4.428,4.428,0,0,0-2.311.859,11.978,11.978,0,0,0-2.476,2.179,13.692,13.692,0,0,0-1.948,2.906,6.793,6.793,0,0,0-.792,3.038,5.15,5.15,0,0,0,.792,3.071,2.486,2.486,0,0,0,2.113,1.09,8.453,8.453,0,0,0,2.906-.528,10.16,10.16,0,0,0,2.642-1.42,8.158,8.158,0,0,0,1.948-2.047,4.428,4.428,0,0,0,.759-2.476,15.882,15.882,0,0,0-.132-1.717,9.809,9.809,0,0,0-.528-2.212A5.94,5.94,0,0,0,74.956,9.46,2.354,2.354,0,0,0,73.107,8.635ZM78.324,57.57A2.989,2.989,0,0,0,81,56.018q.958-1.552.958-5.712,0-1.651-.165-3.632t-.4-3.8q-.231-1.816-.528-3.3a16.4,16.4,0,0,0-.561-2.212,6.187,6.187,0,0,0-1.948,2.212,24.7,24.7,0,0,0-1.75,3.665,26.888,26.888,0,0,0-1.255,4.293,20.451,20.451,0,0,0-.462,4.094,10.059,10.059,0,0,0,.792,4.227A2.714,2.714,0,0,0,78.324,57.57ZM94.437-1.668a5.345,5.345,0,0,1,1.09-2.212Q96.353-4.9,98.8-4.9a3.025,3.025,0,0,1,1.585.4,3.427,3.427,0,0,1,1.057.958,4.3,4.3,0,0,1,.594,1.189,3.7,3.7,0,0,1,.2,1.09,4.257,4.257,0,0,1-.892,2.675A3.739,3.739,0,0,1,98.2,2.559a5.3,5.3,0,0,1-2.675-.66A2.852,2.852,0,0,1,94.371-.809v-.429A1.35,1.35,0,0,1,94.437-1.668ZM93.183,20.522a3.057,3.057,0,0,1-.925-2.245,2.774,2.774,0,0,1,.429-1.486q.429-.693.925-1.42a15.2,15.2,0,0,0,.925-1.552A3.877,3.877,0,0,0,94.966,12a5.1,5.1,0,0,1,.561-2.675,2.5,2.5,0,0,1,2.278-.892,5.822,5.822,0,0,1,1.849.231,2.553,2.553,0,0,1,1.057.66,3.2,3.2,0,0,1,.627,1.024q.231.594.429,1.255.462,1.519,1.09,3.335a15.1,15.1,0,0,0,1.618,3.335,9.081,9.081,0,0,0,2.476,2.543,6.55,6.55,0,0,0,3.8,1.024,4.788,4.788,0,0,0,3-.991,17.374,17.374,0,0,0,2.377-2.212q1.09-1.222,2.047-2.212a2.8,2.8,0,0,1,2.014-.991,4.153,4.153,0,0,1,1.915.561,2.337,2.337,0,0,1,1.057,2.278,3.711,3.711,0,0,1-.132.958,3.036,3.036,0,0,1-.528,1.024,18.527,18.527,0,0,1-5.184,5.118,12.585,12.585,0,0,1-7.165,2.146,10.376,10.376,0,0,1-7.033-2.311,22.526,22.526,0,0,1-4.854-6.274l-.991,1.387a2.065,2.065,0,0,1-.925.726,2.991,2.991,0,0,1-1.057.2,3.617,3.617,0,0,1-1.321-.231A1.813,1.813,0,0,1,93.183,20.522ZM133.665,5.729q-.264,0-1.321,1.222t-2.443,3q-1.387,1.783-2.774,3.731t-2.377,3.335q-.66.925-1.189,1.75a11.335,11.335,0,0,1-1.057,1.42,3.076,3.076,0,0,1-2.311,1.057,2.688,2.688,0,0,1-2.014-.859,2.851,2.851,0,0,1-.825-2.047,3.009,3.009,0,0,1,.462-1.651q1.453-1.981,3.434-4.854t4.094-5.547a41.153,41.153,0,0,1,4.127-4.557Q131.486-.149,133-.149a7.146,7.146,0,0,1,4.59,1.552,12.239,12.239,0,0,1,3.236,4.061,21.614,21.614,0,0,1,1.915,5.613,31.26,31.26,0,0,1,.627,6.208v.429a.824.824,0,0,1-.066.363,13.011,13.011,0,0,0,1.453-.1,12.836,12.836,0,0,0,1.75-.33,10.141,10.141,0,0,0,1.684-.594,5.427,5.427,0,0,0,1.321-.825,2.482,2.482,0,0,1,.958-.627,3.216,3.216,0,0,1,1.024-.165,2.952,2.952,0,0,1,2.014.792,2.688,2.688,0,0,1,.892,2.113,3.138,3.138,0,0,1-1.321,2.642,10.2,10.2,0,0,1-3.137,1.552,23.236,23.236,0,0,1-3.8.825q-1.981.264-3.3.4a23.075,23.075,0,0,1-1.387,3.731,13.768,13.768,0,0,1-2.146,3.269,10.036,10.036,0,0,1-2.972,2.311,8.24,8.24,0,0,1-3.8.859q-4.425,0-6.7-1.849a5.969,5.969,0,0,1-1.123-8.222,10.934,10.934,0,0,1,3.071-2.84,17.029,17.029,0,0,1,4.392-1.948,22.026,22.026,0,0,1,5.118-.859,10.768,10.768,0,0,0,.2-2.113,15.461,15.461,0,0,0-.462-3.764A22.814,22.814,0,0,0,135.943,9a11.648,11.648,0,0,0-1.288-2.377Q134,5.729,133.665,5.729Zm-1.387,22.784a4.532,4.532,0,0,0,2.873-1.585,9.225,9.225,0,0,0,1.42-3.236q-.991.066-2.08.165a9.185,9.185,0,0,0-2.08.429,4.289,4.289,0,0,0-2.906,3.368q0,.33.594.594a3.76,3.76,0,0,0,1.519.264Zm8.585-35.992a1.5,1.5,0,0,1-.4-.925,8.946,8.946,0,0,1-.066-.925,1.907,1.907,0,0,1,1.387-1.948,8.574,8.574,0,0,1,2.906-.5h1.321q0-3.5.264-6.8t.264-6.868a1.505,1.505,0,0,1,.792-1.387,4.178,4.178,0,0,1,2.113-.462,5.185,5.185,0,0,1,2.41.561,2.124,2.124,0,0,1,1.09,2.08q0,1.321-.066,3.038t-.1,3.533q-.033,1.816-.1,3.533t-.066,3.1h2.51q3.632,0,7.264-.165t7.2-.429a2.76,2.76,0,0,1,2.311.925,2.991,2.991,0,0,1,.726,1.849,4.813,4.813,0,0,1-.066.561,2.346,2.346,0,0,1-.4.925,2.964,2.964,0,0,1-1.024.892,3.96,3.96,0,0,1-1.948.4q-3.5.2-7.264.4t-6.736.2h-1.321a9.062,9.062,0,0,1-1.123-.066q-.2,1.981-.2,4.227a48.978,48.978,0,0,0,.693,8.321,23.814,23.814,0,0,0,2.311,7.1,13.648,13.648,0,0,0,4.26,4.92,11.239,11.239,0,0,0,6.6,1.849,21.5,21.5,0,0,0,7.132-1.222,25.843,25.843,0,0,0,6.406-3.269,2.219,2.219,0,0,1,.859-.4,3.712,3.712,0,0,1,.859-.132,3.29,3.29,0,0,1,1.981.792,2.613,2.613,0,0,1,.859,2.113,3.186,3.186,0,0,1-.594,1.849,12.543,12.543,0,0,1-3.335,2.873,23.655,23.655,0,0,1-4.326,2.047,28.683,28.683,0,0,1-4.821,1.255,28.966,28.966,0,0,1-4.887.429,20.735,20.735,0,0,1-7.628-1.288,17.238,17.238,0,0,1-5.58-3.467,17.974,17.974,0,0,1-3.764-5.085,31.273,31.273,0,0,1-2.278-6.043,41.588,41.588,0,0,1-1.156-6.373,60.609,60.609,0,0,1-.33-6.142q0-2.377.2-4.359a18.964,18.964,0,0,1-3.236-.462A3.481,3.481,0,0,1,140.863-7.479ZM187.355,3.748q.066.726.1,1.552t.033,1.882a35.039,35.039,0,0,1-.594,6.109,17.1,17.1,0,0,1-2.708,6.5,2.947,2.947,0,0,1-2.51,1.453,2.738,2.738,0,0,1-2.113-.859,3,3,0,0,1-.792-2.113,2.9,2.9,0,0,1,.462-1.585,13.926,13.926,0,0,0,2.014-4.59,21.62,21.62,0,0,0,.561-4.92,12.6,12.6,0,0,0-.693-4.127,12.6,12.6,0,0,1-.693-4.127,1.2,1.2,0,0,1,.892-1.189,5.191,5.191,0,0,1,1.816-.33,6.665,6.665,0,0,1,1.552.2q.826.2,1.816.4t2.278.4a18.991,18.991,0,0,0,2.873.2,8.654,8.654,0,0,0,2.146-.3q1.156-.3,2.245-.693t1.948-.693a4.488,4.488,0,0,1,1.387-.3,3.149,3.149,0,0,1,1.981.726,2.193,2.193,0,0,1,.925,1.783q0,.726-.2,3.467t-.2,6.439q0,1.981.165,3.929a24.534,24.534,0,0,0,.528,3.5,9.111,9.111,0,0,0,.925,2.51,1.638,1.638,0,0,0,1.42.958,2.356,2.356,0,0,0,1.024-.33,8.2,8.2,0,0,0,1.321-.892q.693-.561,1.354-1.189t1.255-1.222a1.834,1.834,0,0,1,.958-.693,3.656,3.656,0,0,1,1.024-.165,2.82,2.82,0,0,1,2.08.825,2.74,2.74,0,0,1,.826,2.014,3.16,3.16,0,0,1-.66,1.981,8.73,8.73,0,0,1-1.024.991q-.561.462-1.354,1.255a11.467,11.467,0,0,1-3.566,2.476,8.7,8.7,0,0,1-3.368.825,6.3,6.3,0,0,1-5.151-2.245,14.217,14.217,0,0,1-2.708-5.646,31.093,31.093,0,0,1-.892-7.363,61.862,61.862,0,0,1,.363-7.462,17.293,17.293,0,0,1-2.179.859,8.181,8.181,0,0,1-2.576.462,14.852,14.852,0,0,1-2.08-.165A14.083,14.083,0,0,1,187.355,3.748Zm26.614,6.868a5.419,5.419,0,0,1,1.585.264,1.172,1.172,0,0,1,.859,1.255,10.345,10.345,0,0,1-.363,2.146,12.886,12.886,0,0,0-.363,3.071,8.206,8.206,0,0,0,.561,3.1,2.112,2.112,0,0,0,2.146,1.387,2.019,2.019,0,0,0,1.684-.991,12.292,12.292,0,0,0,1.288-2.476q.594-1.486,1.189-3.236a31.971,31.971,0,0,1,1.288-3.236,9.989,9.989,0,0,1,1.585-2.476,2.787,2.787,0,0,1,2.146-.991,5.516,5.516,0,0,1,2.377.528,1.877,1.877,0,0,1,1.123,1.849v.2q0,.132-.1.859t-.33,2.245q-.231,1.519-.627,4.326t-.991,7.1q-.594,4.293-1.453,10.566,1.321-2.245,2.972-4.92t3.368-5.349q1.717-2.675,3.335-5.085t2.807-4.127a2.571,2.571,0,0,1,2.377-1.189,2.425,2.425,0,0,1,2.179.991,3.464,3.464,0,0,1,.66,1.915,3.062,3.062,0,0,1-.33,1.387q-.859,1.519-2.344,3.83t-3.236,4.986q-1.75,2.675-3.665,5.448t-3.665,5.316q-1.75,2.543-3.17,4.557T226.583,47a74.344,74.344,0,0,1-1.321,10.533,39.616,39.616,0,0,1-2.609,8.42,18.185,18.185,0,0,1-3.731,5.613,6.464,6.464,0,0,1-4.557,2.047,4.394,4.394,0,0,1-2.047-.66,10.158,10.158,0,0,1-2.245-1.717,10.994,10.994,0,0,1-1.816-2.41,5.547,5.547,0,0,1-.759-2.741,15.088,15.088,0,0,1,1.156-5.415,36.7,36.7,0,0,1,3.038-6.01,68.387,68.387,0,0,1,4.227-6.043q2.344-3,4.656-5.58.4-2.642.726-4.524t.627-3.83q.3-1.948.66-4.425t.891-6.241a6.13,6.13,0,0,1-1.684,1.684,9.388,9.388,0,0,1-2.146,1.09,14.374,14.374,0,0,1-2.212.594,10.739,10.739,0,0,1-1.882.2,4.816,4.816,0,0,1-2.873-.825,6.454,6.454,0,0,1-1.882-2.113,9.958,9.958,0,0,1-1.057-2.84,14.724,14.724,0,0,1-.33-3.071,12.125,12.125,0,0,1,1.255-5.778A3.733,3.733,0,0,1,213.969,10.616Zm6.6,41.341q-1.321,1.717-2.642,3.8t-2.377,4.094a29.907,29.907,0,0,0-1.684,3.764,8.941,8.941,0,0,0-.627,2.873,1.574,1.574,0,0,0,.33,1.09,1.034,1.034,0,0,0,.792.363q.726,0,1.684-1.519a23.906,23.906,0,0,0,1.882-3.83,41.782,41.782,0,0,0,1.651-5.151A36.992,36.992,0,0,0,220.573,51.956Z" transform="translate(942.915 263.121)" fill="#e47d52"/>
  </g>
</svg>
