<svg xmlns="http://www.w3.org/2000/svg" {% if class is defined %}class="{{ class }}"{% endif %} width="295.705" height="94.522" viewBox="0 0 295.705 94.522">
  <g transform="translate(0 0)">
    <path class="outline" d="M740.276-870.535c9.678-9.857,9.067-10.431,11.385-15.236s8.143-10.428,14.631-6.687,8.7,9.326,14.42,9.392,5.293-10.669,14.22-10.669,10.123-18.251,25.835-17.675,19.564,16.7,20.071,25.638,5.946-9.555,21.064-7.964,13.21,8.406,19.7,10.669S887.236-894,886.9-902.6s2.277-22.04,15.758-20.9,12.467,8.453,12.467,20.9,3.9,15.365,13.544,14.571,11.789-1.665,12.457-7.148,2.97-29.756,22.492-28.328,17.488,19.214,17.344,31.047,9.988-1.6,21.038,0,16.788,10.268,16.735,16.669,13.975-4.047,14.192,8.1-1.657,20.781-14.192,25.627-26.854,2.714-26.854,2.714-4.349,10.9-21.59,9.024-17.67-7.126-24.564-9.024-14.214,7.478-23.524,4.277-7.824-9.226-17.355-6.991a41,41,0,0,1-17.948,0s-7.676,6.666-17.582,6.991-13.39-2.079-13.39-2.079-4.2,4.555-12.01,2.079-18.837.353-28.825,2.32-21.415-9.537-30.654-4.4-23.937,12.709-30.95,4.4S730.6-860.678,740.276-870.535Z" transform="translate(-737.232 923.573)" fill="#ece3cc"/>
    <path class="text" d="M15.09,10.8q-.268,0-1.339,1.24t-2.478,3.051Q9.866,16.9,8.46,18.875T6.049,22.261q-.67.939-1.206,1.777A11.509,11.509,0,0,1,3.772,25.48a3.118,3.118,0,0,1-2.344,1.073,2.724,2.724,0,0,1-2.043-.872A2.9,2.9,0,0,1-1.452,23.6a3.058,3.058,0,0,1,.469-1.676Q.49,19.915,2.5,17t4.152-5.632a41.765,41.765,0,0,1,4.186-4.626q2.043-1.911,3.583-1.911A7.241,7.241,0,0,1,19.075,6.4a12.423,12.423,0,0,1,3.282,4.123,21.961,21.961,0,0,1,1.942,5.7,31.773,31.773,0,0,1,.636,6.3v.436a.837.837,0,0,1-.067.369,13.179,13.179,0,0,0,1.473-.1,13,13,0,0,0,1.775-.335,10.276,10.276,0,0,0,1.708-.6,5.5,5.5,0,0,0,1.339-.838,2.517,2.517,0,0,1,.971-.637,3.258,3.258,0,0,1,1.038-.168,2.991,2.991,0,0,1,2.043.8,2.73,2.73,0,0,1,.9,2.146,3.187,3.187,0,0,1-1.339,2.682A10.335,10.335,0,0,1,31.6,27.86a23.541,23.541,0,0,1-3.851.838q-2.009.268-3.349.4a23.442,23.442,0,0,1-1.406,3.788,13.979,13.979,0,0,1-2.177,3.319A10.18,10.18,0,0,1,17.8,38.554a8.349,8.349,0,0,1-3.851.872q-4.487,0-6.8-1.877A6.065,6.065,0,0,1,6.015,29.2,11.093,11.093,0,0,1,9.13,26.318a17.261,17.261,0,0,1,4.454-1.978,22.314,22.314,0,0,1,5.19-.872,10.943,10.943,0,0,0,.2-2.146,15.715,15.715,0,0,0-.469-3.822A23.178,23.178,0,0,0,17.4,14.115,11.83,11.83,0,0,0,16.095,11.7Q15.425,10.8,15.09,10.8ZM13.684,33.928A4.6,4.6,0,0,0,16.6,32.319a9.372,9.372,0,0,0,1.44-3.285q-1,.067-2.11.168a9.306,9.306,0,0,0-2.11.436,4.352,4.352,0,0,0-2.947,3.419q0,.335.6.6a3.81,3.81,0,0,0,1.54.268ZM61.234,21.859a4.367,4.367,0,0,1,.938-.8,2.721,2.721,0,0,1,1.54-.4,3.16,3.16,0,0,1,1.976.771,2.55,2.55,0,0,1,.971,2.112,3.151,3.151,0,0,1-.6,1.944A16.933,16.933,0,0,1,63.11,28.5a23.6,23.6,0,0,1-3.985,2.615,23.1,23.1,0,0,1-4.621,1.81,18.532,18.532,0,0,1-4.922.67,12.892,12.892,0,0,1-4.688-.8,11.827,11.827,0,0,1-3.65-2.213A13.3,13.3,0,0,1,38.6,27.323a17.843,17.843,0,0,1-1.674-3.855,9.665,9.665,0,0,1-.6,1.039,6.931,6.931,0,0,1-.871,1.039,2.236,2.236,0,0,1-1.038.771,3.746,3.746,0,0,1-1.306.235,2.952,2.952,0,0,1-1.507-.335,3.11,3.11,0,0,1-.9-.771,2.651,2.651,0,0,1-.469-.939,3.554,3.554,0,0,1-.134-.905,3.774,3.774,0,0,1,.536-1.676q.536-1.006,1.272-2.179t1.607-2.313q.871-1.14,1.473-2.079a40.18,40.18,0,0,1,1.708-4.191A15.256,15.256,0,0,1,39.1,7.511,11.745,11.745,0,0,1,42.482,4.9,9.93,9.93,0,0,1,47.1,3.89,10.162,10.162,0,0,1,53.131,5.6,13.622,13.622,0,0,1,57.015,9.79a2.633,2.633,0,0,1,.4,1.006,6.2,6.2,0,0,1,.067.872,2.786,2.786,0,0,1-.938,2.179,2.97,2.97,0,0,1-2.009.838,3.086,3.086,0,0,1-2.177-.771,13.708,13.708,0,0,1-1.54-1.676,17.953,17.953,0,0,0-1.473-1.676A2.759,2.759,0,0,0,47.3,9.79a4.628,4.628,0,0,0-2.411.637,5.4,5.4,0,0,0-1.775,1.71,8.53,8.53,0,0,0-1.072,2.38,9.966,9.966,0,0,0-.368,2.715,15.951,15.951,0,0,0,.569,4.358,10.944,10.944,0,0,0,1.641,3.487,7.723,7.723,0,0,0,2.645,2.313,7.362,7.362,0,0,0,3.516.838,10.43,10.43,0,0,0,3.717-.67,15.522,15.522,0,0,0,3.215-1.643,17.129,17.129,0,0,0,2.545-2.079A14.941,14.941,0,0,0,61.234,21.859Zm.335,14.885q-.4-5.364-.7-9.085T60.4,21.39q-.167-2.548-.268-4.09T60,14.886q-.033-.872-.033-1.307V6.941q0-3.051.268-6.068a53.754,53.754,0,0,1,.737-5.464,28.469,28.469,0,0,1,1.54-5.431,13.544,13.544,0,0,1,2.545-4.191,4.9,4.9,0,0,1,3.75-1.676,4.7,4.7,0,0,1,3.817,1.944,16.345,16.345,0,0,1,2.511,4.626A27.366,27.366,0,0,1,76.5-3.72a36.482,36.482,0,0,1,.4,4.794A28.826,28.826,0,0,1,75.8,9.12a41.192,41.192,0,0,1-2.679,6.973,42.57,42.57,0,0,1-3.282,5.565q-1.708,2.414-2.98,3.889,0,.335-.033.738t-.033.738q0,.939.067,1.911t.2,1.978a1.9,1.9,0,0,0,1.272-.872,23.408,23.408,0,0,0,1.306-1.978q.7-1.173,1.54-2.481a13.771,13.771,0,0,1,2.009-2.447A10.134,10.134,0,0,1,75.9,21.255a8.461,8.461,0,0,1,3.684-.738,6.9,6.9,0,0,1,3.516.771,6.709,6.709,0,0,1,2.11,1.911,11.2,11.2,0,0,1,1.306,2.447q.5,1.307,1.072,2.447a6,6,0,0,0,1.473,1.911,3.751,3.751,0,0,0,2.511.771,5.469,5.469,0,0,0,3.014-.905,14.342,14.342,0,0,0,2.645-2.213,26.983,26.983,0,0,0,2.344-2.85q1.105-1.542,2.043-2.883a2.84,2.84,0,0,1,1.105-.972,3.016,3.016,0,0,1,1.306-.3,2.775,2.775,0,0,1,2.143.872,2.961,2.961,0,0,1,.8,2.079,2.886,2.886,0,0,1-.536,1.743q-1.808,2.615-3.382,4.693a22.7,22.7,0,0,1-3.248,3.52,13.362,13.362,0,0,1-3.617,2.246,11.277,11.277,0,0,1-4.353.8,9.964,9.964,0,0,1-4.119-.771,10.361,10.361,0,0,1-2.88-1.877,11.45,11.45,0,0,1-1.976-2.447q-.8-1.341-1.373-2.447t-1-1.877q-.435-.771-.9-.771a2.688,2.688,0,0,0-1.942.872A14.28,14.28,0,0,0,75.9,29.469q-.871,1.307-1.842,2.816A16.139,16.139,0,0,1,71.749,35.1,11.8,11.8,0,0,1,68.6,37.28a9.781,9.781,0,0,1-4.286.872,3.725,3.725,0,0,1-1.842-.369A2.053,2.053,0,0,1,61.569,36.744ZM68.8-9.989q-.67,0-1.172,1.877a40.624,40.624,0,0,0-.9,4.76q-.4,2.883-.67,6.336t-.368,6.571q-.1,3.118-.067,5.464a14.316,14.316,0,0,0,.234,3.017,22.188,22.188,0,0,0,2.043-3.52,29.347,29.347,0,0,0,1.641-4.325,40.872,40.872,0,0,0,1.072-4.626,26.633,26.633,0,0,0,.4-4.492,25.854,25.854,0,0,0-.234-3.084q-.234-1.877-.6-3.654t-.737-3.051Q69.07-9.989,68.8-9.989ZM119.9,6.639a12.687,12.687,0,0,1,0,5.8,13.473,13.473,0,0,1-2.311,4.76,20.217,20.217,0,0,1-4.052,3.989q-2.411,1.81-5.157,3.487a8.045,8.045,0,0,0,1.909,2.213,8.664,8.664,0,0,0,2.378,1.341,11.723,11.723,0,0,0,2.645.637,22.367,22.367,0,0,0,2.712.168,11.648,11.648,0,0,0,3.951-.67,21.213,21.213,0,0,0,3.684-1.743,30.117,30.117,0,0,0,3.516-2.447q1.708-1.374,3.516-2.783a4.463,4.463,0,0,1,1.875-.738,2.266,2.266,0,0,1,2.076.738,2.448,2.448,0,0,1,.737,1.073,3.8,3.8,0,0,1,.2,1.207,3.223,3.223,0,0,1-.2,1.14,2.407,2.407,0,0,1-.536.872,25.807,25.807,0,0,1-8.506,6.7,30.018,30.018,0,0,1-10.247,2.548,18.894,18.894,0,0,1-6.664-.771,16.2,16.2,0,0,1-5.626-2.984,15.218,15.218,0,0,1-3.951-5.029,15.73,15.73,0,0,1-1.574-6.839,27.7,27.7,0,0,1,.6-6.4,18.053,18.053,0,0,1,2.143-5.565,12.9,12.9,0,0,1,3.683-3.989,11.265,11.265,0,0,1,8.506-1.509,6.689,6.689,0,0,1,2.344,1.073,5.661,5.661,0,0,1,1.507,1.676A7.741,7.741,0,0,1,119.9,6.639Zm-8.372.872a4.864,4.864,0,0,0-2.478,1.844,11.058,11.058,0,0,0-1.574,3.118,16.363,16.363,0,0,0-.737,3.688,14.239,14.239,0,0,0,.1,3.554,32.946,32.946,0,0,0,2.88-2.213,17.417,17.417,0,0,0,2.445-2.548,11.786,11.786,0,0,0,1.641-2.85,7.291,7.291,0,0,0,.536-3.051,1.736,1.736,0,0,0-1-1.475A2.306,2.306,0,0,0,111.531,7.511Zm43.8,3.956q0,2.146-.1,4.76t-.1,5.632a9.333,9.333,0,0,0,.134,1.442,6.334,6.334,0,0,0,.5,1.643,3.989,3.989,0,0,0,.971,1.341,2.329,2.329,0,0,0,1.607.536,2.878,2.878,0,0,0,1.607-.536,10.383,10.383,0,0,0,1.574-1.307q.77-.771,1.507-1.643t1.406-1.542a2.981,2.981,0,0,1,2.277-1.14,2.7,2.7,0,0,1,2.177.905,3.151,3.151,0,0,1,.3,3.721,24.735,24.735,0,0,1-1.909,2.481,20.558,20.558,0,0,1-2.445,2.38,12.215,12.215,0,0,1-2.98,1.81,8.822,8.822,0,0,1-3.516.7,9.727,9.727,0,0,1-2.813-.4,9.176,9.176,0,0,1-4.253-2.682,6.763,6.763,0,0,1-1.172-1.81,14.973,14.973,0,0,1-4.085,3.185,11.334,11.334,0,0,1-5.492,1.307A7.972,7.972,0,0,1,134.1,29.57a10,10,0,0,1-2.277-6.7q0-.536.034-1.173a9.112,9.112,0,0,1,.167-1.307A18.112,18.112,0,0,1,133.23,16.9a19.306,19.306,0,0,1,2.545-4.191,16.118,16.118,0,0,1,3.851-3.52,9,9,0,0,1,5.056-1.475,10.472,10.472,0,0,1,4.487,1.073q0-5.5-.167-9.856t-.368-8.348q-.2-3.989-.4-8.046t-.268-8.951q0-.469.033-1.006a2.073,2.073,0,0,1,.3-.972,1.891,1.891,0,0,1,.837-.7,3.969,3.969,0,0,1,1.641-.268,3.647,3.647,0,0,1,2.411.6,2.042,2.042,0,0,1,.737,1.341q.268,4.962.536,10.56t.469,10.9q.2,5.3.3,9.89T155.331,11.466ZM141.6,26.016a7.237,7.237,0,0,0,2.88-.6A8.462,8.462,0,0,0,146.96,23.8a7.51,7.51,0,0,0,1.708-2.414,7.242,7.242,0,0,0,.636-3.017,7.5,7.5,0,0,0-.837-3.788,2.779,2.779,0,0,0-2.578-1.442,5.969,5.969,0,0,0-2.746.771,10.7,10.7,0,0,0-2.712,2.045,11.684,11.684,0,0,0-2.076,2.95,7.71,7.71,0,0,0-.837,3.487,3.179,3.179,0,0,0,1.206,2.715A4.66,4.66,0,0,0,141.6,26.016ZM164.975,2.683a3.605,3.605,0,0,1,1-.235q.469-.034.938-.034,2.411,0,2.411,4.693V9.321q0,1.408-.033,2.883t-.033,2.816V17.1a16.4,16.4,0,0,0,.469,3.922,10.768,10.768,0,0,0,1.44,3.386,7.9,7.9,0,0,0,2.411,2.38,6.221,6.221,0,0,0,3.382.905,5.987,5.987,0,0,0,3.516-1.006,7.7,7.7,0,0,0,2.344-2.648,15.94,15.94,0,0,0,1.44-3.721q.536-2.079.9-4.191t.6-4.123a33.467,33.467,0,0,1,.569-3.487A3.308,3.308,0,0,1,189.554,6.3a12.028,12.028,0,0,1,1.574.134,1.5,1.5,0,0,1,1.239.67,11.482,11.482,0,0,1,1.038,2.85q.435,1.777.837,3.855T195.079,18a22.377,22.377,0,0,0,1.139,3.855,9,9,0,0,0,1.708,2.816,3.26,3.26,0,0,0,2.478,1.073,3.483,3.483,0,0,0,2.578-1.14q1.105-1.14,3.047-3.084a2.759,2.759,0,0,1,1.038-.7,3.258,3.258,0,0,1,1.038-.168,2.56,2.56,0,0,1,2.378,1.039,3.809,3.809,0,0,1,.636,1.978,3.652,3.652,0,0,1-.335,1.341,18.347,18.347,0,0,1-1.306,1.81,12.886,12.886,0,0,1-2.378,2.246,15.869,15.869,0,0,1-3.382,1.911,11.027,11.027,0,0,1-4.32.8,6.81,6.81,0,0,1-3.583-.872,8.785,8.785,0,0,1-2.478-2.246,16.407,16.407,0,0,1-1.808-3.051q-.77-1.676-1.507-3.285a24.062,24.062,0,0,1-1.909,3.989,18.678,18.678,0,0,1-2.712,3.554,13.357,13.357,0,0,1-3.516,2.581,10.03,10.03,0,0,1-4.32,1.073,13.939,13.939,0,0,1-7.735-1.743,11.627,11.627,0,0,1-4.286-4.727,19.033,19.033,0,0,1-1.808-6.571,73.158,73.158,0,0,1-.368-7.342q0-1.542.033-3.017t.033-2.816q0-.4.034-1.14a10.172,10.172,0,0,1,.167-1.442,3.951,3.951,0,0,1,.469-1.274A1.7,1.7,0,0,1,164.975,2.683Zm39.849,19.846q-1.139-3.956-1.842-7.342t-1.105-6.6q-.4-3.218-.536-6.37t-.134-6.571q0-2.414.134-5.4t.536-6.034a49.246,49.246,0,0,1,1.139-5.9,22.822,22.822,0,0,1,1.942-5.1,10.814,10.814,0,0,1,2.98-3.587,6.747,6.747,0,0,1,4.186-1.341,4.344,4.344,0,0,1,3.315,1.609,12.938,12.938,0,0,1,2.411,4.358,32.7,32.7,0,0,1,1.473,6.37,56.163,56.163,0,0,1,.5,7.711A86.528,86.528,0,0,1,219.156-.8,98.144,98.144,0,0,1,217.381,9.22a64.262,64.262,0,0,1-2.645,8.683,45.961,45.961,0,0,1-3.215,6.772q.4,1.073,1.072,2.85a15.667,15.667,0,0,0,1.842,3.453,11.8,11.8,0,0,0,2.947,2.917,7.47,7.47,0,0,0,4.387,1.24,7.6,7.6,0,0,0,4.186-1.274,20.609,20.609,0,0,0,3.784-3.185,35.071,35.071,0,0,0,3.382-4.191q1.574-2.28,2.98-4.358a2.964,2.964,0,0,1,1-1.039,2.646,2.646,0,0,1,1.473-.436,3.4,3.4,0,0,1,1.942.7,2.55,2.55,0,0,1,1,2.246,2.816,2.816,0,0,1-.4,1.475q-.737,1.341-2.311,3.956a32.846,32.846,0,0,1-4.052,5.3,26.528,26.528,0,0,1-5.726,4.66,13.7,13.7,0,0,1-7.267,1.978,15.769,15.769,0,0,1-6.028-1.073,12.274,12.274,0,0,1-4.588-3.319,22.222,22.222,0,0,1-3.516-5.733A56.182,56.182,0,0,1,204.824,22.529Zm6.563-48.476q-.6,0-1.206,1.173a16.847,16.847,0,0,0-1.139,3.084q-.536,1.911-.971,4.325T207.3-12.5q-.335,2.447-.5,4.693t-.167,3.855q0,2.213.134,5.029t.435,5.733q.3,2.917.77,5.7a40.628,40.628,0,0,0,1.139,5,47.82,47.82,0,0,0,1.942-5.666q.871-3.118,1.507-6.4t.971-6.638q.335-3.352.335-6.437,0-3.151-.167-6.4t-.5-5.9a35.446,35.446,0,0,0-.77-4.325Q211.99-25.947,211.387-25.947Zm43.13,32.586a12.686,12.686,0,0,1,0,5.8,13.473,13.473,0,0,1-2.311,4.76,20.217,20.217,0,0,1-4.052,3.989Q245.744,23,243,24.675a8.045,8.045,0,0,0,1.909,2.213,8.663,8.663,0,0,0,2.378,1.341,11.723,11.723,0,0,0,2.645.637,22.366,22.366,0,0,0,2.712.168,11.647,11.647,0,0,0,3.951-.67,21.213,21.213,0,0,0,3.683-1.743,30.113,30.113,0,0,0,3.516-2.447Q265.5,22.8,267.31,21.39a4.463,4.463,0,0,1,1.875-.738,2.266,2.266,0,0,1,2.076.738A2.448,2.448,0,0,1,272,22.462a3.8,3.8,0,0,1,.2,1.207,3.223,3.223,0,0,1-.2,1.14,2.407,2.407,0,0,1-.536.872,25.807,25.807,0,0,1-8.506,6.7,30.017,30.017,0,0,1-10.247,2.548,18.894,18.894,0,0,1-6.664-.771,16.2,16.2,0,0,1-5.626-2.984,15.218,15.218,0,0,1-3.951-5.029,15.731,15.731,0,0,1-1.574-6.839,27.7,27.7,0,0,1,.6-6.4,18.054,18.054,0,0,1,2.143-5.565,12.9,12.9,0,0,1,3.684-3.989,11.265,11.265,0,0,1,8.506-1.509,6.689,6.689,0,0,1,2.344,1.073,5.661,5.661,0,0,1,1.507,1.676A7.74,7.74,0,0,1,254.518,6.639Zm-8.372.872a4.864,4.864,0,0,0-2.478,1.844,11.058,11.058,0,0,0-1.574,3.118,16.363,16.363,0,0,0-.737,3.688,14.237,14.237,0,0,0,.1,3.554,32.944,32.944,0,0,0,2.88-2.213,17.417,17.417,0,0,0,2.445-2.548,11.787,11.787,0,0,0,1.641-2.85,7.291,7.291,0,0,0,.536-3.051,1.736,1.736,0,0,0-1-1.475A2.306,2.306,0,0,0,246.146,7.511Z" transform="translate(14.158 40.635)" fill="#e47d52"/>
  </g>
</svg>
