<svg xmlns="http://www.w3.org/2000/svg" {% if class is defined %}class="{{ class }}"{% endif %} width="252.817" height="104.334" viewBox="0 0 252.817 104.334">
  <g transform="translate(-821.676 -168.723)">
    <path class="outline" d="M688.676-786.395c3.163-8.26-2.92-17.737,7.139-17.737s17.312-9.454,19.935,0,4.055,17.737,4.055,17.737,12.8,9.224,18.545,10.7,15.517,11.727,22.819,2.9,22.308-14.292,29.948-9.093,3.974,17.785,11.859,13.532,22.677-9.586,29.436-7.342,19.336,7.342,19.336,7.342,1.173-13.248,9.527-13.532,12.407,0,12.407,0S874.023-813,889.9-813s30.662-1.605,32.027,17.361a65.04,65.04,0,0,1-6.593,33.267s21.216-2.849,21.35,7.812S935.7-722,921.932-715.68s-27.936,6.217-32.027,0a17.726,17.726,0,0,1-2.611-12.672s-10.055,2.341-18.639,0-11.53-7.432-11.53-7.432,3.045,28.623-20.185,27.024S810.9-731.681,810.9-731.681s-10.04,11.891-14.171,6.488-4.491-6.488-4.491-6.488-4.608,9.325-10.825,6.488-8.269-6.488-8.269-6.488-5.182,8.109-13.762,10.129-21.032-6.8-21.032-6.8a28.222,28.222,0,0,1-25.277,3.159c-14.254-5.15-17.128-19.7-17.257-26.1s-5.067-11.119-9.813-17.063S685.513-778.135,688.676-786.395Z" transform="translate(137.795 981.752)" fill="#ece3cc"/>
    <path class="text" d="M-10.124-24.554q-.078-.544-.155-1.553a2.057,2.057,0,0,1,.233-1.4,3.127,3.127,0,0,1,2.174-1.281q1.242-.116,2.8-.272-.155-1.009-.272-2.407T-5.581-34.3q-.116-1.437-.194-2.8t-.078-2.446a5.018,5.018,0,0,1,.272-1.592,1.043,1.043,0,0,1,1.048-.815,12.514,12.514,0,0,0,1.98-.155A6.849,6.849,0,0,1-.5-42.1a1.168,1.168,0,0,1,1.087.932q.155.777.388,2.562.078.932.194,2.1t.194,2.446L1.524-31.5q.078,1.281.155,2.368,2.019,0,3.688.039t3.222.039H15.5q.932.078,1.553,1.359a3.445,3.445,0,0,1,.466,2.058,3.281,3.281,0,0,1-1.9,1.864,11.582,11.582,0,0,1-4.62.7l-8.619-.078A63.136,63.136,0,0,0,3.5-14.071,41.247,41.247,0,0,0,5.911-6a16.865,16.865,0,0,0,3.8,5.746,7.49,7.49,0,0,0,5.319,2.174,6.265,6.265,0,0,0,3.106-.738A9.441,9.441,0,0,0,20.47-.637a16.551,16.551,0,0,0,1.786-2.291q.777-1.2,1.4-2.135A4.033,4.033,0,0,1,25.246-6.5a4.025,4.025,0,0,1,1.592-.349,3.212,3.212,0,0,1,1.2.233,3.813,3.813,0,0,1,.971.544A3.116,3.116,0,0,1,29.9-4.792a4.142,4.142,0,0,1,.272,1.437,3.671,3.671,0,0,1-.544,1.864q-.854,1.4-2.019,3.184A17.571,17.571,0,0,1,24.7,5.07a15.166,15.166,0,0,1-4.115,2.64,13.413,13.413,0,0,1-5.474,1.048A14.3,14.3,0,0,1,6.92,6.429,18.86,18.86,0,0,1,1.1-.094,37.736,37.736,0,0,1-2.631-10.15a87.032,87.032,0,0,1-1.9-13.006q-1.087-.078-2.058-.116A14.894,14.894,0,0,1-8.3-23.428a4.749,4.749,0,0,1-1.242-.349A.958.958,0,0,1-10.124-24.554ZM31.807-10.887A9.915,9.915,0,0,1,31.962-9.3V-7.16a7.992,7.992,0,0,1-.349,2.1A11.116,11.116,0,0,1,30.642-2.7a6.311,6.311,0,0,1-1.592,1.9,3.446,3.446,0,0,1-2.213.776A3.86,3.86,0,0,1,24.469-.87a2.928,2.928,0,0,1-1.126-2.485,3.993,3.993,0,0,1,.466-1.786,6.431,6.431,0,0,0,1.009-2.912q.155-1.592.155-3.145a17.987,17.987,0,0,0-.932-5.125,3.707,3.707,0,0,0-.7-1.048q-.466-.5-.932-.932A6.527,6.527,0,0,1,21.6-19.2a1.648,1.648,0,0,1-.349-1.009,1.532,1.532,0,0,1,.427-.971,4.885,4.885,0,0,1,1.087-.932,7.851,7.851,0,0,1,1.475-.738,4.455,4.455,0,0,1,1.592-.311A4.563,4.563,0,0,1,26.915-23a6.964,6.964,0,0,1,2.562,1.553q1.165,1.087,2.252,2.135a20.613,20.613,0,0,0,2.213,1.864,4.2,4.2,0,0,0,2.524.815,3.975,3.975,0,0,0,2.291-.66,4.4,4.4,0,0,1,2.524-.66,6.4,6.4,0,0,1,2.873.738,2.223,2.223,0,0,1,1.475,1.98,2.883,2.883,0,0,1-.466,1.475,16.176,16.176,0,0,0-.854,1.631q-.932,2.019-1.708,4.193a12.444,12.444,0,0,0-.776,4.193,16.013,16.013,0,0,0,.311,3.067,10.47,10.47,0,0,0,1.009,2.912A6.323,6.323,0,0,0,45.008,4.41a4.726,4.726,0,0,0,2.873.854,9.331,9.331,0,0,0,4.154-.893,13.042,13.042,0,0,0,3.378-2.407,25.258,25.258,0,0,0,2.912-3.417q1.359-1.9,2.912-4a2.979,2.979,0,0,1,1.4-1.126,4.283,4.283,0,0,1,1.4-.272A3.1,3.1,0,0,1,66.478-5.84a3.511,3.511,0,0,1,.893,2.407,3.3,3.3,0,0,1-.544,1.941A63.332,63.332,0,0,1,62.052,5.07a24.849,24.849,0,0,1-4.387,4.154,13.9,13.9,0,0,1-4.5,2.174,19.864,19.864,0,0,1-5.125.621,11.02,11.02,0,0,1-5.513-1.359A12.954,12.954,0,0,1,38.446,7.05a16.342,16.342,0,0,1-2.524-5.125,20.6,20.6,0,0,1-.854-5.9,17.615,17.615,0,0,1,.272-3.378q.272-1.359.815-3.145a8.164,8.164,0,0,1-2.1.039A17.787,17.787,0,0,1,31.807-10.887ZM78.475-8.558q-.078-1.786-.311-3.611a12.58,12.58,0,0,0-.854-3.3A6.354,6.354,0,0,0,75.6-17.876a4.384,4.384,0,0,0-2.951-.932,4.321,4.321,0,0,0-2.485.738A7.342,7.342,0,0,0,68.3-16.245a8.078,8.078,0,0,0-1.165,2.368,8.209,8.209,0,0,0-.388,2.368,9.808,9.808,0,0,0,.777,3.8,13.36,13.36,0,0,0,1.941,3.3,10.467,10.467,0,0,0,2.6,2.329,5.239,5.239,0,0,0,2.757.893A3.337,3.337,0,0,0,77.31-2.85Q78.552-4.52,78.475-8.558Zm4.97,3.882a17.892,17.892,0,0,1-.078,1.825A12.5,12.5,0,0,1,82.9-.793a10.869,10.869,0,0,1-2.368,4.387,6.776,6.776,0,0,1-4,1.98,9.883,9.883,0,0,1-5.746-.854,17.69,17.69,0,0,1-5.4-3.8,20.608,20.608,0,0,1-4-5.824,16.043,16.043,0,0,1-1.553-6.833,13.251,13.251,0,0,1,1.048-5.2,14.576,14.576,0,0,1,2.8-4.348,13.473,13.473,0,0,1,4-2.951A10.6,10.6,0,0,1,72.34-25.33a11.128,11.128,0,0,1,4.348.815,12.536,12.536,0,0,1,3.572,2.291,18.946,18.946,0,0,1,2.951,3.417,35.7,35.7,0,0,1,2.407,4.115,36.161,36.161,0,0,1,1.553,3.766q.854,2.368,1.9,4.62a24.408,24.408,0,0,0,2.213,3.882A3.185,3.185,0,0,0,93.772-.793a3.018,3.018,0,0,0,1.747-.5,5.985,5.985,0,0,0,1.32-1.242q.582-.738,1.126-1.553t1.087-1.514a2.957,2.957,0,0,1,2.368-1.281,3.9,3.9,0,0,1,1.9.427,3.226,3.226,0,0,1,1.669,2.135,3.257,3.257,0,0,1-.582,2.912A20.679,20.679,0,0,1,99.285,3.75a10.073,10.073,0,0,1-5.746,2.058A6.456,6.456,0,0,1,89.812,4.8a10.348,10.348,0,0,1-2.6-2.6A22.2,22.2,0,0,1,85.23-1.22Q84.376-3.045,83.444-4.675Zm21.121,3.106a3.565,3.565,0,0,1-1.4,1.2,3.6,3.6,0,0,1-1.475.349,3.25,3.25,0,0,1-2.446-1.009,3.547,3.547,0,0,1-.971-2.562,3.082,3.082,0,0,1,.311-1.4q1.475-2.485,2.873-4.62a33.194,33.194,0,0,1,2.834-3.766,12.472,12.472,0,0,1,3.028-2.562,7.609,7.609,0,0,1,3.611-1.009,5.9,5.9,0,0,1,3.533,1.087,8.413,8.413,0,0,1,2.485,2.873,15.378,15.378,0,0,1,1.475,4.154,23.6,23.6,0,0,1,.5,4.931,17.866,17.866,0,0,1-.194,2.407q-.194,1.4-.388,3.028t-.388,3.3a28.551,28.551,0,0,0-.194,3.3,7.888,7.888,0,0,0,.466,2.64,7.855,7.855,0,0,0,1.32,2.368,6.917,6.917,0,0,0,2.058,1.708,5.639,5.639,0,0,0,2.757.66,6.6,6.6,0,0,0,3.533-.932,8.292,8.292,0,0,0,2.524-2.407,10.979,10.979,0,0,0,1.514-3.3,13.776,13.776,0,0,0,.5-3.688,28.173,28.173,0,0,0-.427-4.853q-.427-2.446-.893-4.659T130.228-8.4a14.2,14.2,0,0,1-.427-3.028,3,3,0,0,1,1.242-2.174,4.438,4.438,0,0,1,3.028-1.087,12.425,12.425,0,0,1,6.1,1.475,39.978,39.978,0,0,1,4.97,3.222q2.291,1.747,4.348,3.184a7.309,7.309,0,0,0,4.232,1.437,3.752,3.752,0,0,0,2.1-.738,3.851,3.851,0,0,1,2.174-.738A3.043,3.043,0,0,1,160.434-5.8a3.555,3.555,0,0,1,.893,2.368,3.7,3.7,0,0,1-.621,2.1A5.1,5.1,0,0,1,159.153.178a7.742,7.742,0,0,1-2.058.893,8.037,8.037,0,0,1-2.135.311A11.094,11.094,0,0,1,149.874.139a36.413,36.413,0,0,1-4.581-2.757q-2.135-1.514-4-2.8a6.105,6.105,0,0,0-3.339-1.281q-.311,0-.194,1.165t.349,2.8q.233,1.631.466,3.455a25.8,25.8,0,0,1,.233,3.222,31.782,31.782,0,0,1-.7,6.678,17.19,17.19,0,0,1-2.33,5.785,12.321,12.321,0,0,1-4.387,4.077,14.017,14.017,0,0,1-6.95,1.553,13.1,13.1,0,0,1-5.707-1.2,12.872,12.872,0,0,1-4.31-3.3,14.618,14.618,0,0,1-2.718-4.853,18.185,18.185,0,0,1-.932-5.863,40.345,40.345,0,0,1,.388-5.474q.388-2.834.7-6.251a10.75,10.75,0,0,0-.388-3.261q-.388-1.165-1.32-1.165a1.887,1.887,0,0,0-1.4.893,20.284,20.284,0,0,0-1.437,2.135q-.738,1.242-1.437,2.562A18.325,18.325,0,0,1,104.565-1.569Zm68.021-19.257a9.306,9.306,0,0,1,.621,3.339,14.047,14.047,0,0,1-.7,4.232,22.882,22.882,0,0,1-1.9,4.348,22.775,22.775,0,0,1-2.912,4.038,21.3,21.3,0,0,1-3.727,3.3,11.085,11.085,0,0,0,1.708,1.2,7.242,7.242,0,0,0,1.669.66,9.29,9.29,0,0,0,2.019.272Q170.49.6,172.276.6A8.2,8.2,0,0,0,176.9-.56a13.5,13.5,0,0,0,2.912-2.562l2.135-2.562a3.051,3.051,0,0,1,2.446-1.165,3.69,3.69,0,0,1,1.009.155,3.565,3.565,0,0,1,1.087.544,3.066,3.066,0,0,1,.893,1.009,3.313,3.313,0,0,1,.349,1.631,4.985,4.985,0,0,1-.078.893,3.154,3.154,0,0,1-.388.971,15.017,15.017,0,0,1-2.6,3.572,18.124,18.124,0,0,1-3.572,2.834,18.9,18.9,0,0,1-4.232,1.9,15.372,15.372,0,0,1-4.581.7A22.762,22.762,0,0,1,163,5.652a17.667,17.667,0,0,1-6.251-4.465,17.748,17.748,0,0,1-3.533-6.173,21.72,21.72,0,0,1-1.126-6.833,14.7,14.7,0,0,1,.932-5.047,16.412,16.412,0,0,1,2.562-4.62,13.318,13.318,0,0,1,3.883-3.339,9.58,9.58,0,0,1,4.814-1.281,8.433,8.433,0,0,1,2.446.388,10.86,10.86,0,0,1,2.446,1.087,9.231,9.231,0,0,1,2.058,1.669A6.952,6.952,0,0,1,172.586-20.826Zm-7.92,1.475a4,4,0,0,0-2.446.777,6.469,6.469,0,0,0-1.747,1.98,9.873,9.873,0,0,0-1.048,2.64,11.66,11.66,0,0,0-.349,2.757,10.562,10.562,0,0,0,.233,2.291,3.314,3.314,0,0,0,.854,1.669,13.173,13.173,0,0,0,2.718-2.329,17.187,17.187,0,0,0,1.941-2.64,12.351,12.351,0,0,0,1.165-2.562,7.433,7.433,0,0,0,.388-2.174,3.174,3.174,0,0,0-.427-1.747A1.424,1.424,0,0,0,164.666-19.351Zm32.458-14.443a65.736,65.736,0,0,1-2.252,17.044,48.513,48.513,0,0,1-7.066,15.336q.311,1.864.7,4.232a28.873,28.873,0,0,0,1.087,4.465,11.656,11.656,0,0,0,1.864,3.572,3.837,3.837,0,0,0,3.184,1.475,4.666,4.666,0,0,0,3.533-2.019,29.185,29.185,0,0,0,3.184-4.853q1.514-2.834,2.99-5.863a32.689,32.689,0,0,1,3.028-5.125,3.244,3.244,0,0,1,2.718-1.32A3.674,3.674,0,0,1,212.3-6,2.928,2.928,0,0,1,213.43-3.51a4.075,4.075,0,0,1-.621,2.174A74.789,74.789,0,0,0,209.2,5.536a46.063,46.063,0,0,1-3.766,6.678,20.713,20.713,0,0,1-4.853,5.086,11.452,11.452,0,0,1-6.95,2.019,8.921,8.921,0,0,1-4.62-1.126,10.854,10.854,0,0,1-3.261-2.99,16.488,16.488,0,0,1-2.213-4.31,41.679,41.679,0,0,1-1.4-4.97q-.544-2.524-.893-5.008t-.66-4.5q-1.165-6.989-1.98-13.938a121.537,121.537,0,0,1-.815-14.171q0-3.184.194-6.328t.66-6.406a26.99,26.99,0,0,1,.854-3.844,19.8,19.8,0,0,1,1.669-4.038,12.127,12.127,0,0,1,2.524-3.222,5.067,5.067,0,0,1,3.494-1.32,7.2,7.2,0,0,1,5.2,1.864,12.081,12.081,0,0,1,2.99,5.047,32.231,32.231,0,0,1,1.4,7.377Q197.124-38.375,197.124-33.794Zm-6.678-4.271q0-2.64-.155-4.931a30.485,30.485,0,0,0-.5-4,9.2,9.2,0,0,0-.932-2.718,1.64,1.64,0,0,0-1.359-1.009q-.7,0-1.242,1.165a14.09,14.09,0,0,0-.932,3.028,40.633,40.633,0,0,0-.621,4.154q-.233,2.291-.349,4.543t-.155,4.271q-.039,2.019-.039,3.261,0,2.64.078,5.513t.233,5.63q.155,2.757.427,5.086a28.3,28.3,0,0,0,.66,3.8,17.236,17.236,0,0,0,2.135-4.077,33.815,33.815,0,0,0,1.514-5.746,71.144,71.144,0,0,0,.932-7.8Q190.446-32.319,190.446-38.065Z" transform="translate(847.836 237.176)" fill="#e47d52"/>
  </g>
</svg>
